<svg width="15" height="42" viewBox="0 0 15 42" fill="none" xmlns="http://www.w3.org/2000/svg">
<path d="M10.9011 41.4335C10.6617 41.9312 10.0641 42.1406 9.56646 41.9011L1.45626 37.9992C0.958583 37.7598 0.749237 37.1622 0.988677 36.6646C1.22812 36.1669 1.82567 35.9575 2.32335 36.197L9.53241 39.6653L13.0008 32.4563C13.2402 31.9586 13.8378 31.7492 14.3354 31.9887C14.8331 32.2281 15.0425 32.8257 14.803 33.3234L10.9011 41.4335ZM6.00033 20.7015L7.00032 20.7064L6.00033 20.7015ZM10 41C9.05624 41.3306 9.05619 41.3305 9.05612 41.3303C9.05607 41.3302 9.05599 41.3299 9.0559 41.3297C9.05573 41.3292 9.05549 41.3285 9.05519 41.3276C9.0546 41.3259 9.05376 41.3235 9.05269 41.3204C9.05053 41.3143 9.04742 41.3053 9.04339 41.2936C9.03531 41.2703 9.02353 41.2361 9.0083 41.1915C8.97782 41.1023 8.93351 40.9714 8.87735 40.8023C8.76504 40.464 8.60529 39.9729 8.41402 39.3568C8.03164 38.125 7.52254 36.3915 7.01465 34.3808C6.0034 30.3774 4.97843 25.2049 5.00035 20.6966L7.00032 20.7064C6.97965 24.9584 7.95451 29.9352 8.95374 33.891C9.45109 35.8599 9.94989 37.5584 10.3241 38.7638C10.5111 39.3663 10.6668 39.845 10.7754 40.172C10.8297 40.3355 10.8722 40.461 10.9009 40.545C10.9153 40.5871 10.9262 40.6188 10.9334 40.6396C10.937 40.6501 10.9397 40.6578 10.9415 40.6628C10.9423 40.6652 10.9429 40.667 10.9433 40.6681C10.9435 40.6687 10.9437 40.6691 10.9437 40.6693C10.9438 40.6694 10.9438 40.6694 10.9438 40.6695C10.9438 40.6694 10.9438 40.6694 10 41ZM5.00035 20.6966C5.02174 16.2962 6.04656 11.2753 7.04745 7.39475C7.55012 5.44584 8.05135 3.7674 8.42717 2.57533C8.61516 1.97907 8.77196 1.50389 8.88214 1.17672C8.93724 1.01311 8.98069 0.886475 9.01057 0.800163C9.02551 0.757005 9.03706 0.723926 9.04498 0.701344C9.04894 0.690053 9.05199 0.681386 9.05411 0.675396C9.05516 0.672401 9.05598 0.670075 9.05657 0.668425C9.05686 0.6676 9.05709 0.666943 9.05727 0.666457C9.05735 0.666214 9.05744 0.665976 9.05748 0.665854C9.05755 0.66566 9.0576 0.665507 10 1C10.9424 1.33449 10.9424 1.33443 10.9424 1.3344C10.9424 1.33445 10.9424 1.33447 10.9424 1.33456C10.9423 1.33476 10.9422 1.33512 10.942 1.33565C10.9416 1.33671 10.941 1.33844 10.9402 1.34084C10.9385 1.34563 10.9358 1.35309 10.9323 1.36316C10.9252 1.3833 10.9146 1.41388 10.9005 1.45449C10.8724 1.5357 10.8308 1.657 10.7775 1.81502C10.6711 2.13109 10.5184 2.59392 10.3346 3.1767C9.967 4.34273 9.47611 5.98653 8.98406 7.89425C7.99551 11.727 7.0205 16.5568 7.00032 20.7064L5.00035 20.6966Z" fill="#ca032e"/>
</svg>
