<svg width="711" height="691" viewBox="0 0 711 691" fill="none" xmlns="http://www.w3.org/2000/svg">
<path d="M528.29 649.471C564.795 623.13 573.707 557.86 608.29 498.471C643.354 439.562 704.046 387.113 710.29 333.471C716.054 280.309 667.284 225.76 618.29 175.471C569.297 124.704 519.694 78.0393 456.29 45.4714C393.367 12.4245 317.662 -6.6285 241.29 2.47137C164.438 11.5712 86.5198 49.1249 43.2903 109.471C0.541084 169.818 -8.56054 253.588 7.29028 324.471C22.6608 395.355 62.9116 453.378 90.2903 519.471C117.189 585.086 130.58 658.003 174.29 681.471C217.52 704.461 290.603 677.177 359.29 670.471C427.497 663.287 491.785 675.813 528.29 649.471Z" fill="#f1faff"/>
</svg>
