<!DOCTYPE svg PUBLIC "-//W3C//DTD SVG 1.1//EN" "http://www.w3.org/Graphics/SVG/1.1/DTD/svg11.dtd">
<!-- Uploaded to: SVG Repo, www.svgrepo.com, Transformed by: SVG Repo Mixer Tools -->
<svg version="1.0" id="Layer_1" xmlns="http://www.w3.org/2000/svg" xmlns:xlink="http://www.w3.org/1999/xlink" width="64px" height="64px" viewBox="0 0 64 64" enable-background="new 0 0 64 64" xml:space="preserve" fill="#000000">
<g id="SVGRepo_bgCarrier" stroke-width="0"/>
<g id="SVGRepo_tracerCarrier" stroke-linecap="round" stroke-linejoin="round"/>
<g id="SVGRepo_iconCarrier"> <g> <g> <rect x="8" y="32" fill="#0094df" width="48" height="16"/> <rect x="8" y="16" fill="#0094df" width="48" height="8"/> </g> <g> <path fill="#394240" d="M60,8H4c-2.211,0-4,1.789-4,4v40c0,2.211,1.789,4,4,4h56c2.211,0,4-1.789,4-4V12C64,9.789,62.211,8,60,8z M56,48H8V32h48V48z M56,24H8v-8h48V24z"/> <path fill="#394240" d="M16,44h8c2.211,0,4-1.789,4-4s-1.789-4-4-4h-8c-2.211,0-4,1.789-4,4S13.789,44,16,44z"/> </g> </g> </g>
</svg>