<svg width="997" height="496" viewBox="0 0 997 496" fill="none" xmlns="http://www.w3.org/2000/svg">
<path d="M30.4867 259.675C30.3844 259.85 30.2565 260.141 30.1542 260.141C25.5752 260.402 21.0217 260.838 16.5451 262.001C16.1869 262.089 15.7009 262.408 15.4962 262.234C12.58 259.966 9.38239 261.682 6.33825 261.478C3.24295 261.275 0.0964909 261.74 -3.02439 261.798C-3.89415 261.798 -4.78949 261.362 -5.68482 261.1C-7.11736 260.693 -8.52432 260.112 -9.95686 259.85C-16.2754 258.687 -16.6847 258.861 -22.0311 264.444L-21.852 264.327C-22.9008 264.124 -23.6939 265.345 -24.9985 264.647C-26.431 263.891 -28.2217 263.891 -29.8589 263.63C-30.3961 263.542 -30.9589 263.659 -31.4961 263.775C-31.8542 263.862 -32.3914 264.008 -32.4937 264.269C-33.5681 267.787 -37.6867 265.578 -38.9657 268.718C-39.1704 269.212 -39.7843 269.445 -40.0401 269.648C-40.8331 268.485 -41.575 267.438 -42.2401 266.479C-40.8587 266.159 -38.6332 267.526 -37.9169 264.211C-39.7587 263.019 -41.7796 263.339 -43.7238 263.31C-45.5656 263.281 -47.4074 263.426 -49.2493 263.571C-52.1911 263.775 -55.1841 263.746 -58.1003 264.24C-63.7537 265.2 -69.5094 265.403 -75.0861 267.09C-77.5674 267.816 -80.1 267.846 -82.6581 266.392C-84.551 265.316 -86.9045 265.258 -89.0789 264.764C-89.3091 261.885 -87.1603 263.862 -86.4185 263.048C-86.3161 262.874 -86.2138 262.728 -86.1115 262.554C-87.2371 262.001 -88.3882 261.449 -89.6161 260.867C-88.7975 257.698 -84.9603 258.571 -84.5766 254.907C-86.3673 254.733 -88.158 254.558 -89.9231 254.384L-89.8207 254.558C-90.1789 254.209 -90.5882 253.541 -90.9207 253.57C-92.5835 253.744 -94.2207 254.18 -95.8834 254.355C-96.2416 254.384 -96.6509 253.744 -97.5718 252.93C-95.423 252.523 -93.8881 252.174 -92.3021 251.941C-89.9231 251.593 -88.0812 250.604 -87.1859 247.813C-86.8278 246.679 -85.9324 245.778 -85.165 244.585C-81.4302 245.4 -77.8744 244.411 -74.3698 242.783C-72.6815 241.998 -70.7629 241.852 -68.9466 241.445C-68.0257 241.242 -66.7723 241.474 -66.2606 240.864C-63.9328 238.189 -61.0165 239.555 -58.3817 239.09C-56.7445 238.8 -55.0562 238.974 -53.4446 238.683C-49.0702 237.84 -44.747 236.939 -40.2192 237.346C-35.6146 237.753 -30.9333 237.52 -26.3031 237.491C-25.0241 237.491 -23.745 237.288 -22.466 237.084C-21.545 236.968 -20.6241 236.474 -19.7544 236.561C-17.1451 236.881 -14.5614 236.066 -12.0545 236.125C-9.57314 236.183 -7.32201 235.456 -4.96856 235.311C-0.338398 235.049 4.29178 235.34 8.94752 235.427C11.1731 235.485 13.3986 235.63 15.5986 235.659C21.5589 235.747 27.4937 235.979 33.4541 235.863C38.2633 235.747 43.0726 235.223 47.9074 234.874C50.2864 234.7 52.7678 233.915 54.9933 234.467C58.6514 235.398 61.0816 233.74 63.3839 231.007C62.8978 234.816 62.9234 234.816 65.942 233.799C66.7861 233.508 67.7326 233.624 68.6024 233.45C68.8582 233.392 69.2419 232.839 69.2164 232.607C69.114 232.083 68.8582 231.298 68.5257 231.182C67.7071 230.862 66.7861 230.775 65.8908 230.775C65.0211 230.775 64.1257 231.007 63.256 231.124C63.0769 229.903 62.8722 228.681 62.7443 227.431C62.642 226.443 62.6164 225.425 62.5653 224.436C60.4421 223.099 58.6002 223.739 56.7328 224.989C55.2491 226.006 55.1724 225.89 52.5119 225.658C53.0747 224.611 53.6119 223.622 54.3794 222.227C53.5352 221.936 52.9212 221.558 52.3073 221.558C48.9818 221.587 45.6562 221.674 42.3307 221.791C39.1843 221.907 35.9099 222.692 32.9425 221.965C30.7169 221.413 28.5681 223.826 26.5728 221.703C24.5775 221.965 22.5822 222.285 20.5613 222.459C18.8985 222.605 17.159 222.983 15.573 222.605C9.12658 221.064 2.60342 221.994 -3.86857 221.296C-4.61042 221.209 -5.50576 221.558 -6.06854 221.18C-9.03594 219.174 -12.1824 219.988 -15.3033 220.191C-17.887 220.366 -20.4962 220.511 -23.1055 220.657C-23.4636 220.686 -23.8473 220.511 -24.2055 220.569C-25.8938 220.889 -26.3543 217.836 -27.9403 218.592C-29.424 219.319 -30.7542 219.116 -32.2379 218.941C-34.4379 218.68 -36.6634 218.854 -38.8634 219.058C-40.3982 219.203 -41.7285 219.319 -42.854 217.691C-43.3401 216.993 -44.3889 216.673 -45.2331 216.47C-46.1284 216.266 -47.1005 216.266 -48.0214 216.441C-52.2934 217.226 -56.5143 216.673 -60.7863 216.121C-64.2909 215.656 -67.8467 215.83 -71.3513 215.569C-73.1675 215.423 -74.9838 214.958 -77.8744 214.435C-76.3651 213.562 -75.7768 212.894 -75.2907 212.981C-70.2768 213.911 -65.263 213.01 -60.2491 213.097C-54.3143 213.213 -48.3795 213.33 -42.4959 213.998C-37.3029 214.58 -32.1356 214.696 -26.9171 214.347C-25.9961 214.289 -25.0496 214.144 -24.1287 214.202C-19.4986 214.464 -14.8684 214.813 -10.2382 215.074C-8.52431 215.161 -6.47783 214.347 -3.86857 212.632C-2.30813 214.929 -0.00583982 215.132 2.47552 215.045C7.10568 214.929 11.7614 214.929 16.3916 215.103C18.1567 215.161 19.6659 214.929 20.6636 213.242C22.5822 215.191 20.5869 216.063 20.4334 217.313C19.7427 217.168 19.0776 216.266 18.1311 217.342C19.0008 217.255 19.6659 217.197 20.3055 217.139C26.2403 217.226 32.1495 217.371 38.0843 217.429C43.6609 217.487 49.2376 217.517 54.8143 217.546C55.4794 217.546 56.17 217.371 57.9863 217.08C54.5328 215.278 52.0259 215.249 49.4934 215.278C45.9632 215.336 42.4075 215.743 38.9029 214.725C38.5703 214.638 38.3145 214.318 37.9819 214.086C38.3401 212.835 39.2098 212.748 40.1563 212.777C45.1446 212.981 50.1329 213.301 55.1212 213.359C58.4723 213.388 61.7979 213.097 65.149 212.894C65.6862 212.865 66.2745 212.719 66.7606 212.399C72.0303 208.968 78.3232 209.172 83.7464 206.294C84.5394 205.886 85.5626 206.09 86.5091 206.032C88.5556 205.945 90.6021 205.828 92.6485 205.799C97.3554 205.741 101.986 205.421 105.413 201.06C107.255 201.496 108.918 201.729 110.479 202.281C112.755 203.095 114.878 202.601 117.002 201.758C117.564 201.525 117.564 201.467 117.513 198.792C116.797 198.85 116.055 198.763 115.416 198.996C114.546 199.316 113.727 199.955 112.781 199.286C109.916 197.251 106.59 198.094 103.495 197.513C102.446 197.309 101.141 197.426 100.195 197.949C97.6368 199.345 94.8229 199.286 92.1881 200.13C88.9137 201.176 85.6393 201.583 82.2371 200.769C80.8045 200.42 79.2441 200.42 77.786 200.682C73.9232 201.38 70.1117 202.31 66.2489 203.095C64.535 203.444 63.1536 204.229 62.1048 205.974C61.363 207.195 61.1839 207.049 60.2374 204.869C60.1095 204.549 59.7514 204.229 59.47 204.2C59.1374 204.142 58.5746 204.287 58.4723 204.549C57.7561 206.177 57.1421 207.835 56.2468 210.044C55.0701 208.503 54.2515 207.457 53.484 206.468C54.9422 201.525 58.4979 200.391 62.2327 199.897C65.2001 199.49 68.1164 199.199 70.6745 197.193C71.2117 196.786 72.0814 196.873 72.7721 196.786C74.4093 196.582 76.0465 196.408 77.6581 196.204C77.2999 192.163 75.7139 190.244 72.4651 190.157C69.6768 190.099 66.8885 190.302 64.1002 190.622C60.9025 191 57.7816 190.971 54.7375 189.779L54.8398 189.982C55.3514 189.75 55.8375 189.401 56.3491 189.372C57.27 189.285 58.2165 189.285 59.1374 189.401C61.6188 189.75 63.2815 185.679 65.7885 187.482C67.8861 188.994 70.1117 188.412 72.2349 189.023C72.7465 189.168 73.386 189.168 73.8977 188.965C74.5628 188.703 75.3558 188.354 75.6883 187.744C76.0209 187.133 75.8418 186.174 75.8674 185.447C75.3302 185.156 74.9977 184.836 74.6907 184.865C66.1466 185.476 57.6026 184.836 49.0585 185.243C48.1376 185.272 47.0376 185.127 46.2958 185.621C43.1237 187.744 39.7215 186.813 36.4727 186.639C28.6705 186.145 20.8171 186.406 13.066 184.923C12.1707 184.749 11.1475 184.807 10.3033 185.156C8.30799 185.97 7.15684 184.72 5.7243 182.946C9.33123 183.033 12.7079 183.208 16.059 183.208C17.8753 183.208 19.6659 182.917 21.4822 182.539C24.9101 181.841 28.4914 182.19 32.0216 182.161C34.6308 182.132 37.2145 182.132 39.8238 182.219C42.0493 182.278 44.2749 182.51 46.5004 182.597C52.0515 182.801 57.6026 182.452 63.1792 183.266C65.6606 183.644 68.2698 182.626 70.8791 182.772C75.8674 183.004 80.8813 183.237 85.844 182.946C90.8323 182.626 95.8206 181.812 100.758 180.853C102.472 180.533 104.032 179.166 106.13 178.033C107.946 177.916 110.402 177.945 112.755 177.509C115.595 176.986 118.332 177.335 121.043 178.091C124.113 178.963 127.183 179.806 130.253 180.766C136.29 182.655 142.429 182.307 148.569 181.987C149.848 181.929 151.127 181.725 152.636 181.551C152.38 179.893 150.948 180.388 150.257 179.748C149.541 179.079 148.876 178.381 147.903 177.422C149.976 175.183 152.534 173.468 151.817 169.572C153.787 169.484 155.092 169.63 156.294 169.31C157.496 168.99 158.596 168.147 159.747 167.536C161.18 170.618 161.18 170.618 164.378 170.066C164.48 166.664 165.733 164.251 168.829 163.204C169.929 162.826 171.438 162.245 170.773 159.802C168.292 159.773 165.733 159.599 163.175 159.773C159.671 160.035 156.166 159.541 152.61 160.18C149.745 160.704 146.701 159.977 143.734 160.064C131.455 160.384 119.15 160.791 106.872 161.14C102.241 161.256 97.5857 161.256 92.9299 161.285C83.6184 161.373 74.307 161.518 64.9955 161.518C59.5979 161.518 54.1747 160.907 48.8027 161.343C39.8749 162.07 30.9216 161.198 22.0194 161.78C19.0776 161.983 16.059 161.78 13.2451 163.379C11.3265 164.454 9.2289 163.844 7.23358 163.262L7.31033 163.408C7.41265 163.233 7.48939 163.03 7.64288 162.884C8.6917 161.867 11.1986 163.64 11.1731 161.082C11.1475 158.988 8.81961 159.512 7.56614 158.959C5.87779 158.203 3.98479 157.796 2.19412 157.767C-5.22437 157.68 -12.5917 157.564 -20.0102 158.552C-25.5101 159.279 -31.1123 158.61 -36.4588 156.43L-36.3309 156.633C-36.3053 156.43 -36.203 156.197 -36.2541 156.023C-36.8425 153.929 -39.2983 155.15 -40.0145 153.29C-41.2168 153.493 -42.4191 153.697 -43.6214 153.9L-43.5191 154.104C-43.4424 153.493 -43.3912 152.883 -43.2889 152.039C-40.1424 151.545 -36.996 151.371 -33.9518 152.388C-28.81 154.075 -23.745 154.104 -18.5777 152.592C-15.0986 151.574 -11.5684 151.807 -8.14059 153.202L-8.2685 152.97C-8.83128 153.435 -9.39407 153.871 -10.4429 154.714C-8.16618 155.616 -6.42667 155.906 -4.58484 155.877C-0.312812 155.79 3.95921 155.761 8.23124 155.79C13.8079 155.79 19.359 155.906 24.9356 155.877C29.003 155.877 33.096 155.703 37.1634 155.674C38.468 155.645 39.747 155.79 41.0517 155.79C49.3911 155.732 57.7049 156.197 66.0443 155.819C68.2443 155.703 70.4698 156.168 72.6954 156.372C71.9024 156.953 71.0838 157.506 70.2652 158.116C71.1349 159.017 72.0303 158.872 72.7977 158.291C73.7442 157.564 73.0791 156.982 72.4907 156.488C75.6372 155.267 78.8092 155.441 81.9301 156.459C82.6975 156.691 83.2859 157.593 83.951 158.203C81.9813 157.535 79.9859 155.965 77.6581 158.669C80.0371 159.047 81.9557 158.843 83.8231 158C90.4742 159.076 97.1508 158.349 103.827 158.436C106.616 158.465 109.404 158.232 112.167 158.407C113.881 158.523 115.441 158.61 116.976 157.447C117.513 157.04 118.485 156.924 119.074 157.157C124.702 159.454 130.585 158.523 136.264 158.174C142.404 157.796 148.517 158.203 154.631 157.622C155.373 157.564 156.166 157.825 156.857 157.593C160.822 156.313 164.864 155.906 168.982 155.877C170.594 155.848 171.796 154.947 172.768 153.028C172.078 152.476 171.412 151.661 170.619 151.371C168.496 150.586 166.347 149.946 164.173 149.452C162.075 148.987 160.464 148.114 159.159 145.934C157.138 142.532 153.787 140.875 150.692 139.014C149.541 138.316 148.159 138.112 147.11 137.298C146.292 136.688 145.806 135.467 144.962 134.187C147.29 133.402 148.952 133.46 150.641 134.827C151.664 135.67 152.841 136.368 154.043 136.833C155.015 137.211 156.217 136.571 156.166 135.467C156.064 133.46 156.652 131.919 157.42 130.233C157.675 129.652 156.959 128.489 156.678 127.587C157.752 126.977 159.313 127.907 160.003 125.93C160.285 125.174 161.334 124.563 162.127 124.273C164.736 123.313 165.503 121.278 165.222 118.458C163.38 115.87 161.103 115.899 158.596 116.946C154.938 115.434 152.687 112.148 150.922 108.427C149.336 105.054 149.669 101.478 151.178 97.6108C154.299 95.5756 158.008 95.8082 161.666 95.8663C163.329 95.8954 165.145 96.3897 166.578 95.75C170.747 93.9183 174.866 94.2672 179.061 95.0813C180.417 95.343 181.645 95.1685 183.001 93.2205C182.361 92.6099 181.568 91.8249 180.391 90.6909C181.568 90.3711 182.105 90.0222 182.438 90.1676C183.052 90.4874 183.717 90.9817 184.075 91.6214C184.561 92.4645 184.766 93.5112 185.124 94.6161C186.377 94.7905 187.477 94.8487 188.526 95.1104C189.37 95.3139 190.47 95.5465 190.956 96.2152C192.773 98.7157 194.717 98.3377 196.84 96.9712C196.482 96.2443 196.175 95.6046 195.791 94.7905C203.67 96.7676 203.67 96.7676 209.758 95.75C209.784 93.9764 208.351 93.7148 207.482 93.4822C202.775 92.261 198.042 91.2724 193.31 90.2257C191.34 91.3306 190.189 89.4989 188.884 88.5103C188.449 88.1905 188.552 86.9984 188.398 86.2134L188.168 86.3588C189.089 87.0566 189.908 88.0742 190.905 88.3649C193.438 89.0918 195.996 89.7896 198.579 89.9641C201.01 90.1094 203.286 90.4583 205.461 91.7667C207.175 92.7844 209.119 92.7843 210.935 92.2028C213.57 91.3597 216.077 91.7377 218.661 92.4064C220.835 92.9879 223.009 93.2786 225.286 93.1333C228.816 92.9297 232.346 93.4822 235.877 93.4531C238.639 93.4531 241.453 93.2205 244.19 92.7843C246.953 92.3482 249.665 91.505 252.376 90.8072C254.218 90.342 254.909 88.9464 254.167 87.0856C253.195 84.6724 252.146 82.2882 251.072 79.8169C249.639 79.7587 248.155 79.7878 246.672 79.6133C240.89 78.9737 235.186 79.1772 229.43 80.1948C224.877 81.0089 220.17 80.7763 215.54 81.0089L215.642 81.1834C217.433 79.4389 219.198 77.6653 221.909 78.6248C222.14 77.8398 222.37 77.3164 222.472 76.7349C222.549 76.3569 222.523 75.9208 222.549 75.2521C223.649 75.4556 224.723 75.6882 225.798 75.8045C228.381 76.0662 230.991 76.7058 233.523 76.386C237.437 75.8626 241.249 75.9208 245.111 76.5604C246.569 76.793 248.181 77.142 249.537 76.6477C252.351 75.63 255.037 76.3278 257.799 76.6767C257.083 77.3455 255.779 77.0838 255.318 78.7992C260.792 79.2063 265.985 80.7182 271.357 79.468C270.539 76.4732 270.539 76.3569 268.671 76.386C264.988 76.4441 261.304 76.6477 257.62 76.764C261.432 73.9728 265.55 72.3736 270.104 73.4785C273.609 74.3217 277.062 74.1763 280.592 73.9437C281.846 73.8565 283.099 74.1181 284.378 74.2054L284.276 73.9728C284.173 74.5543 284.071 75.1358 283.918 75.9499C289.034 76.0371 294.022 76.1534 299.01 76.1825C299.931 76.1825 300.827 75.8045 301.748 75.6301C307.785 74.4961 313.822 73.3331 319.859 72.3155C321.854 71.9666 323.926 72.0247 326.075 70.1348C325.026 69.8732 324.387 69.5534 323.773 69.6115C321.189 69.8441 318.606 70.2802 315.996 70.5128C313.259 70.7745 310.548 71.3851 308.015 69.2335C307.12 68.4776 305.508 68.652 304.229 68.5648C300.52 68.3322 296.81 68.3613 293.127 68.0124C286.476 67.4018 279.825 66.6168 273.174 65.8899C264.476 64.9595 255.779 64.0582 247.081 63.0405C239.33 62.1101 231.579 61.0634 223.853 59.9586C219.812 59.4061 215.795 58.6502 211.754 57.9815L211.83 58.1268C211.703 56.8185 214.158 57.1674 213.263 55.2775C213.237 55.1903 214.005 54.3761 214.491 54.2598C215.182 54.0854 215.975 54.1145 216.665 54.2598C223.06 55.5391 229.456 56.8766 235.851 58.2141C236.388 58.3304 237.053 58.3013 237.463 58.6211C241.402 61.5868 245.981 61.1507 250.304 61.6159C257.134 62.3718 263.99 62.6044 270.82 63.244C275.629 63.6802 280.388 64.4943 285.197 65.0176C289.213 65.4247 293.255 66.0643 297.271 65.8317C302.694 65.5119 308.015 66.6749 313.387 66.704C318.938 66.7621 324.515 67.2564 330.04 66.9657C337.612 66.5877 345.159 65.6282 352.731 64.9304C355.314 64.6978 357.872 63.9709 360.456 64.6978L360.405 64.4652C358.896 65.3375 357.361 66.2388 355.007 67.6053C358.768 68.3031 361.147 68.0705 362.733 65.0176L362.605 65.163C364.498 66.7621 366.519 67.2855 368.898 66.9075C372.581 66.326 376.291 66.0643 379.974 65.7154C387.572 64.9595 395.144 64.1454 402.741 63.5057C405.325 63.3022 407.934 63.622 410.518 63.5929C413.127 63.5639 415.737 63.593 418.32 63.3022C423.692 62.6916 429.039 61.8194 434.385 61.1507C443.799 59.9586 453.238 58.97 462.627 57.6616C468.868 56.7894 475.161 56.3242 481.173 53.7074C482.529 53.1259 483.066 50.6545 484.422 51.4686C486.315 52.6026 487.594 50.7708 489.205 50.9453C490.689 51.0907 492.173 50.9162 493.656 50.7999C496.061 50.6255 498.466 50.5092 500.845 50.1603C506.191 49.3752 511.512 48.4448 516.858 47.6307C521.642 46.9038 526.451 46.1479 531.235 45.5664C534.918 45.1012 538.602 44.6941 542.311 44.4615C548.783 44.0545 555.255 42.8915 561.676 41.5831C565.667 40.7399 569.836 40.5655 573.571 38.4139C574.032 38.1522 574.671 38.1232 575.234 38.1522C580.862 38.3267 586.387 37.2218 591.862 36.0879C598.052 34.8086 604.448 34.7795 610.485 32.2209C612.531 31.3487 614.859 31.2905 617.059 30.9125C627.726 29.139 638.419 27.4526 649.086 25.5627C655.686 24.3706 662.337 23.2076 668.809 21.3178C672.007 20.3874 675.102 18.8173 678.453 18.2939C679.349 18.1486 680.295 18.2358 681.216 18.2358L681.139 18.0613C680.756 19.8931 679.298 20.0094 678.095 20.3292C673.235 21.6957 668.374 22.946 663.489 24.2543C663.028 24.3706 662.619 24.7195 662.03 25.0684C666.507 28.2376 671.188 26.7257 675.716 26.7839C678.121 26.8129 680.5 26.6385 682.904 26.5222C684.209 26.4641 685.488 26.3187 686.793 26.2605C688.967 26.1442 691.269 24.109 693.214 25.5336C695.286 27.0456 697.742 25.1847 699.507 27.1618C704.827 27.4235 710.199 28.9064 715.341 25.9988C719.537 25.6499 723.757 24.8358 727.825 26.9583L727.85 26.813C726.981 27.5398 726.264 28.6738 724.96 28.3249C719.946 26.9293 715.034 28.005 710.097 29.0227C706.132 29.8658 702.116 30.5636 698.125 31.2324C696.514 31.494 695.03 31.6976 693.367 30.5636C690.886 28.9064 687.944 29.7495 685.232 30.1566C683.928 30.331 682.188 29.5169 681.293 31.5231C683.314 33.5002 686.256 29.8658 688.507 33.3258C686.128 33.3839 684.209 33.2676 682.316 33.4711C680.295 33.6747 678.326 34.3434 676.305 34.4888C675.486 34.5469 674.642 33.7619 673.798 33.3839C672.826 32.9769 672.007 33.3258 671.291 34.1108L671.444 33.9945C670.702 33.9945 669.884 33.791 669.219 34.0527C662.005 36.7276 654.407 37.6289 647.117 39.984C645.735 40.4201 644.252 40.5073 642.307 40.8562C644.431 42.717 646.503 42.8043 648.37 42.3972C653.486 41.2923 658.782 41.9029 663.872 40.3038C665.586 39.7804 667.607 40.013 669.398 40.4201C672.007 41.0016 674.565 41.0307 677.174 40.8853C682.956 40.5364 688.737 40.362 694.339 38.5011C694.518 38.443 694.697 38.3848 694.876 38.3558C702.627 38.065 709.739 34.7214 717.029 32.3372C719.895 31.4068 722.76 30.5927 725.727 30.1566C728.643 29.7205 731.687 29.2843 734.246 27.3945C735.192 26.6966 734.374 25.9988 733.811 25.4755L733.887 25.6209C734.68 23.731 735.959 25.0975 737.034 25.0103C739.566 27.3363 742.176 28.7901 745.936 25.9407C744.299 25.5627 743.301 25.1557 742.304 25.1266C740.487 25.0394 738.671 25.1266 736.855 25.1557C740.052 23.5275 743.25 22.1319 746.908 22.4226C748.315 22.5389 749.773 21.5504 751.231 21.3178C752.817 21.0561 754.327 19.7477 756.066 20.9107C756.424 21.1724 757.217 20.9979 757.652 20.7072C761.771 18.0904 766.375 17.1019 770.826 15.5609C772.259 15.0666 773.589 14.2816 775.022 13.7873C775.636 13.5547 776.377 13.7292 777.401 13.7001C776.761 15.6481 776.224 17.1309 775.764 18.6719C775.533 19.4569 775.457 20.3292 775.303 21.1142C776.608 23.1204 778.27 22.8297 779.882 22.2772C787.198 19.7768 794.463 17.1891 801.575 13.9908C809.326 10.4727 816.898 6.4313 825.007 3.93085C826.337 3.52379 827.412 2.07004 828.614 1.08149L828.46 1.16871C832.579 -1.1573 836.467 -4.06481 840.969 -5.51856C842.735 -6.10006 843.553 -7.8155 844.602 -9.26925C845.011 -9.82168 845.165 -9.7926 846.955 -9.50185C844.858 -3.94851 840.918 -0.837468 836.135 1.37224C833.602 2.56432 831.249 4.25067 828.486 5.90795C832.17 6.98373 832.17 6.98373 835.725 4.51235C836.109 4.77403 836.595 5.0357 837.004 5.41368C839.332 7.56523 839.332 7.56523 841.686 5.82073C842.197 5.44275 842.76 5.12292 843.553 5.09385C842.658 7.82691 839.972 8.37934 838.693 10.589C837.388 12.8569 835.981 15.0085 834.651 17.1891C831.402 18.4393 828.179 19.1371 824.802 19.0208C823.728 18.9917 822.602 19.4279 821.579 19.864C819.507 20.7363 817.486 21.7539 815.388 22.7424C814.442 24.4579 817.333 24.4288 816.642 26.3187C816.335 27.1909 817.102 28.5575 817.435 29.9821C816.437 30.2147 815.721 30.3892 815.03 30.5636C815.209 29.9821 815.568 29.4006 815.516 28.8482C815.414 27.7143 814.749 27.0165 813.726 27.1618C813.291 27.22 812.907 27.7724 812.498 28.0923C812.907 28.6738 813.24 29.3716 813.751 29.8077C814.135 30.1566 814.749 30.2438 815.235 30.4183C814.928 30.6218 814.647 30.9998 814.314 31.0288C811.014 31.465 811.014 31.465 808.968 34.3434C806.461 32.1628 803.724 31.9883 800.628 32.657C797.021 33.413 793.568 35.2738 789.756 34.8958C789.577 34.8667 789.321 34.8958 789.219 35.0121C786.738 37.8615 783.591 37.2218 780.522 37.5998C777.912 37.9196 775.022 38.6174 773.129 41.3214L773.154 41.2924C770.187 41.932 767.066 42.0192 764.559 44.3452L764.764 44.1999C762.129 43.9091 760.517 45.7699 758.906 47.369C759.315 50.7418 762.18 48.5902 763.306 50.4219C762.385 51.6431 761.515 52.8352 760.62 53.9982C760.492 54.0854 760.338 54.2017 760.21 54.2889C760.313 54.1435 760.44 53.9982 760.543 53.8528C762.947 55.0739 765.071 54.2017 767.245 52.8933C768.524 52.1374 769.957 51.7303 771.338 51.207C773.436 50.3929 773.64 50.1312 774.612 46.3223C777.017 46.206 779.575 45.9153 782.108 46.0316C785.484 46.177 788.733 45.7699 791.956 44.5488C794.054 43.7637 796.279 43.4439 798.454 42.9496C803.34 41.8157 808.2 40.4782 813.112 39.6351C815.798 39.1699 818.535 38.7628 821.349 39.7804C823.216 40.4492 825.391 40.2456 827.412 40.1584C828.87 40.1003 831.428 40.7108 829.816 37.2218C830.43 36.902 831.095 36.2333 831.658 36.3205C832.681 36.4659 833.653 37.0765 834.651 37.4835C834.574 37.658 834.523 37.8615 834.421 38.0359C834.063 38.6756 833.398 39.4025 834.293 40.013C834.625 40.2456 835.521 40.1003 835.7 39.7804C836.237 38.9082 835.572 38.3558 834.958 37.8906C834.804 37.7743 834.651 37.658 834.497 37.5417C835.7 37.0474 836.902 36.1461 838.079 36.1751C839.614 36.2042 840.944 35.9425 842.376 35.2738C844.09 34.4597 845.523 34.6051 846.009 37.3672C846.137 38.1522 847.672 38.9082 848.669 39.1408C850.281 39.4897 851.944 39.4025 853.607 39.4897V39.5188C851.151 41.8157 848.234 41.554 845.344 41.2924C841.609 40.9725 838.079 42.0483 834.651 43.5021C832.809 44.2871 832.681 45.1884 833.679 47.8924L833.602 47.7179C832.988 49.4334 832.4 51.1488 831.658 53.2713C832.451 53.6202 833.193 54.1726 833.986 54.2308C835.802 54.4052 837.644 54.3761 839.46 54.4052L839.383 54.2889C837.695 56.9348 834.907 56.7312 832.528 57.6326C831.684 57.9524 830.686 57.9524 829.944 58.4757C829.458 58.7956 829.33 59.7841 828.921 60.7145C833.602 62.7498 838.181 62.7788 842.735 62.2555C845.497 61.9357 848.183 61.674 850.946 62.459C852.123 62.8079 853.453 62.3427 854.706 62.4009C855.602 62.4299 856.497 62.7207 857.393 62.8661L857.341 62.6916C856.318 63.1568 855.32 63.6511 854.425 64.0582C854.093 65.8608 855.116 66.2679 855.96 66.2388C858.697 66.1516 861.485 66.0353 864.197 65.541C867.113 65.0176 869.978 64.0582 872.946 64.9595L872.895 64.8141C871.82 67.0529 869.62 67.4599 868.06 67.1401C864.018 66.2679 860.462 68.2159 856.727 68.9137C854.962 69.2335 852.865 69.1463 852.481 72.0247C852.455 72.2573 851.995 72.6062 851.714 72.6353C848.874 72.6935 847.39 75.601 845.088 76.1534C844.832 77.7525 845.6 78.0724 846.29 78.2177C848.797 78.8283 851.458 78.712 854.195 80.253C851.33 83.1314 847.416 81.2997 844.832 83.5966C844.576 84.7887 845.088 85.4284 845.881 85.4865C847.135 85.6319 848.49 85.8354 849.641 85.4284C851.1 84.905 851.586 86.1552 852.686 86.5914C852.404 88.1905 852.097 89.6152 851.893 91.0398C851.739 92.0575 851.534 93.1042 851.586 94.1509C851.662 96.0408 853.351 97.1456 854.809 96.2152C855.73 95.6337 856.523 94.7615 857.393 93.9764C859.158 94.2672 860.334 95.6628 861.562 96.913C862.764 98.1342 863.967 99.3844 865.271 100.722C864.146 103.135 862.023 102.873 860.411 103.571C859.413 104.007 858.185 103.746 857.111 103.978C856.216 104.182 854.834 104.385 854.604 105.054C853.555 107.991 850.895 107.554 849.155 108.921C848.951 109.095 848.951 109.648 848.848 110.055C849.718 111.16 850.844 110.695 851.893 110.666L851.765 110.462C850.793 111.392 850.127 112.323 851.023 113.835C851.253 114.213 851.048 114.94 851.048 115.521L851.202 115.405C849.872 115.318 848.695 115.056 848.158 113.311C847.697 111.858 846.546 111.596 845.446 112.032C841.839 113.399 838.897 115.55 838.053 120.202C837.874 121.191 837.414 122.092 837.107 122.964C837.567 123.371 837.9 123.895 838.104 123.837C842.683 122.674 847.109 124.505 851.611 124.767L851.509 124.563C851.432 125.116 851.355 125.668 851.279 126.192L851.534 126.017C850.946 125.93 850.204 125.61 850.153 126.657C850.153 126.889 850.895 127.18 851.279 127.442L851.1 127.238C850.818 127.471 850.562 127.878 850.281 127.878C849.744 127.936 843.732 128.605 843.118 128.808C841.2 129.419 839.23 129.826 837.414 130.64C836.416 131.076 836.442 132.21 837.388 133.024L837.26 132.85C837.49 133.606 837.721 134.391 837.951 135.089C836.646 136.397 835.444 137.618 834.216 138.839L834.318 138.81C832.579 139.101 830.839 139.334 829.125 139.741C828.819 139.799 828.588 140.555 828.486 141.02C828.46 141.165 828.946 141.514 829.253 141.66C829.56 141.834 829.944 141.863 830.277 141.95L830.123 141.747C830.584 143.23 831.76 143.782 832.809 143.317C836.825 141.543 841.174 141.776 845.242 139.886C848.951 138.171 853.12 137.676 857.341 136.601C857.239 137.415 857.137 138.112 857.034 138.927C858.876 140.06 860.692 139.159 862.381 138.519C865.195 137.444 867.957 136.135 870.669 134.711C872.562 133.693 874.353 132.908 876.553 133.286C877.781 133.489 879.136 133.082 880.39 132.734C884.355 131.629 888.32 130.931 892.413 130.611C894.792 130.437 897.12 129.448 899.473 128.808C902.006 128.111 904.487 127.616 907.148 127.529C910.78 127.384 914.285 126.104 918.173 124.418C917.175 123.837 916.74 123.546 916.28 123.284L916.382 123.43C916.203 121.859 916.792 120.929 918.199 121.074C919.478 121.22 920.731 121.627 922.01 121.947L921.933 121.772C922.138 122.528 922.368 123.313 922.598 124.156C923.264 124.011 924.082 124.098 924.261 123.749C925.822 120.9 928.329 120.58 930.887 120.231C931.603 120.144 932.498 120.173 933.01 119.708C935.645 117.469 938.28 117.207 941.298 118.748C942.014 119.097 943.217 118.196 944.931 117.614C943.217 116.8 942.27 116.335 941.247 115.841C941.452 115.608 941.631 115.23 941.81 115.23C943.626 115.085 945.442 115.027 947.259 114.94C948.486 117.091 948.486 117.091 950.558 115.579C949.177 115.376 948.128 115.23 947.079 115.085C949.996 112.207 953.296 110.636 957.235 110.985V110.869C957.414 111.392 957.465 112.265 957.772 112.381C958.437 112.672 959.205 112.614 960.023 112.672C960.944 111.363 961.865 110.055 962.786 108.718C960.714 107.962 958.796 107.264 956.903 106.537L957.005 106.74C959.614 105.17 962.3 105.403 965.063 106.217C965.242 107.118 965.242 108.136 965.677 108.776C966.035 109.299 966.93 109.386 967.8 109.764C966.496 110.142 965.447 110.346 964.5 110.811C964.116 111.014 963.707 111.974 963.835 112.352C964.065 112.992 964.705 113.864 965.191 113.864C967.391 113.806 969.565 113.515 971.765 113.282C972.2 113.893 972.609 114.474 973.274 115.405C973.888 114.387 974.374 113.602 974.733 113.05C982.995 112.439 991.13 111.858 999.239 111.247C999.981 111.189 1000.93 111.189 1001.36 110.695C1004.18 107.438 1007.81 108.136 1011.26 107.845C1012.52 107.729 1013.77 107.584 1015.59 107.38C1014.69 108.863 1014.18 109.851 1013.56 110.724C1012.95 111.596 1012.23 112.381 1011.31 113.515C1014.26 114.329 1016.99 114.184 1019.65 113.689C1022.9 113.108 1025.89 113.399 1028.84 115.027L1028.71 114.823C1028.86 115.318 1028.99 116.248 1029.22 116.277C1031.78 116.713 1034.36 117.12 1036.92 117.353C1042.27 117.876 1047.59 118.603 1052.68 120.289C1053.62 123.052 1053.62 123.052 1056.92 124.476C1055.36 124.767 1054.21 124.68 1053.34 125.203C1051.91 126.104 1050.58 125.988 1049.07 125.785C1043.93 125.116 1038.76 124.476 1033.57 124.098C1031.96 123.982 1030.17 124.273 1028.73 125.058C1026.3 126.366 1023.77 126.337 1021.26 126.599C1016.51 127.093 1011.7 127.355 1006.94 127.733L1007.02 127.878C1007.07 127.674 1007.09 127.326 1007.19 127.297C1009.14 126.802 1011.21 126.715 1012.98 125.785C1014.89 124.767 1016.69 123.866 1018.81 124.185C1020.93 124.505 1022.16 123.022 1023.46 121.772C1023.21 121.162 1023.16 120.958 1023.03 120.813C1022.93 120.667 1022.75 120.464 1022.59 120.464C1020.55 120.464 1018.5 120.377 1016.46 120.551C1010.52 120.987 1004.61 121.54 998.676 122.034C997.73 122.761 998.139 125.203 996.144 124.593C995.965 123.866 995.811 123.139 995.555 122.063C994.097 122.063 992.614 122.005 991.156 122.063C987.83 122.237 984.479 122.354 981.179 122.732C975.833 123.313 970.461 123.604 965.293 125.465C964.679 125.697 964.168 126.279 963.042 127.151C965.268 128.169 967.468 127.064 968.695 129.012L968.593 128.808C967.621 130.815 965.14 128.576 964.27 131.193C964.347 131.425 964.551 131.978 964.756 132.588C964.551 132.763 964.347 133.112 964.065 133.199C963.016 133.577 961.789 133.577 960.893 134.216C959.256 135.379 957.491 135.757 955.624 136.106C953.245 136.571 950.789 137.008 948.64 138.171C946.21 139.479 943.728 140.031 941.145 140.468C934.903 141.543 928.533 142.008 922.445 143.782C914.847 145.963 907.096 146.951 899.473 148.812C898.22 149.132 896.864 149.51 895.815 150.324C893.513 152.098 890.852 152.737 888.371 152.563C884.176 152.272 880.39 154.336 876.322 154.482C875.35 154.511 874.429 155.441 872.664 156.401C876.092 156.924 878.548 157.593 880.901 155.703C881.336 155.354 882.232 155.79 883.229 155.877C881.413 158.116 879.264 158.349 877.346 158.814C874.097 159.599 870.746 159.802 867.471 160.442C864.376 161.053 861.306 161.983 858.237 162.681C856.062 163.175 853.837 163.873 851.637 163.844C847.365 163.815 843.579 166.577 839.409 165.821C838.846 167.449 838.488 168.583 838.079 169.717C837.746 170.618 837.388 171.491 837.056 172.392C838.923 174.195 840.509 172.247 842.121 172.654C842.249 172.944 842.581 173.293 842.53 173.555C841.839 176.811 841.097 180.068 840.432 182.975C839.742 183.411 839.383 183.789 839.102 183.76C835.623 183.092 835.086 183.295 833.832 186.348C833.449 187.278 833.5 188.412 833.142 189.372C832.835 190.215 832.221 190.913 831.709 191.756C833.449 193.501 835.367 193.82 837.132 193.704C839.537 193.53 841.404 195.041 843.502 195.739C844.551 196.088 845.267 197.687 846.341 198.996C853.53 196.699 861.051 195.449 867.983 191.669C869.134 191.029 870.49 190.942 871.718 190.477C872.767 190.07 874.225 189.808 874.66 188.936C876.808 184.691 880.748 184.72 884.125 183.441C886.734 182.452 889.394 181.609 892.055 180.737C894.869 179.806 897.503 178.149 900.676 178.701C902.031 178.934 903.617 178.236 904.948 177.567C908.017 176.026 911.317 175.939 914.54 175.125C911.445 177.916 907.761 179.108 904.359 180.998C902.287 182.132 902.236 182.045 900.01 185.301C900.88 185.418 901.571 185.737 902.185 185.592C907.659 184.429 913.134 183.15 918.608 182.016C919.861 181.754 921.166 181.929 922.445 181.9L922.368 181.754C921.601 182.248 920.859 182.714 920.091 183.208C920.271 183.76 920.475 184.313 920.782 185.301C919.196 185.011 917.815 184.778 916.126 184.458C914.95 186.232 913.185 187.046 911.087 187.511C904.717 188.965 898.399 190.68 892.029 192.279C891.927 192.163 891.722 192.047 891.671 191.872C891.518 191.349 891.39 190.797 891.262 190.273C890.801 190.477 890.085 190.535 889.957 190.884C889.497 192.192 888.857 193.21 887.527 192.977C883.46 192.221 880.032 194.518 876.45 195.972C873.662 197.106 871.002 198.676 868.239 200.013C866.857 200.682 865.45 201.264 863.967 200.304C862.56 199.403 860.897 199.345 859.669 200.188C856.753 202.165 853.172 201.7 850.307 203.851C849.514 204.462 848.183 204.142 847.109 204.258C845.062 204.462 844.525 205.392 844.909 208.096C845.011 208.91 845.062 209.724 845.139 210.568C842.376 212.865 839.716 215.103 837.081 217.342L837.209 217.197C836.339 217.924 835.495 218.738 834.574 219.377C832.886 220.569 831.146 221.645 828.332 223.506C830.993 223.593 832.477 223.419 833.884 223.768C835.47 224.175 836.928 225.251 838.514 225.745C840.1 226.239 841.763 226.472 843.4 226.675C845.037 226.879 846.776 227.315 848.311 226.879C850.844 226.21 853.402 226.384 855.909 225.919L855.832 225.745C855.448 226.181 855.065 226.588 854.706 227.053C853.069 229.147 853.274 230.019 855.858 231.618C854.604 233.304 851.944 232.287 850.972 234.933C852.404 237.055 855.73 233.566 856.548 237.491C855.781 237.898 854.962 238.712 854.169 238.683C851.714 238.538 849.872 239.526 848.234 241.562C847.544 242.434 846.316 242.783 845.549 243.219C844.167 243.684 846.725 244.876 844.986 245.167C843.016 245.516 843.016 245.516 842.479 248.394C843.835 248.859 845.19 249.354 846.597 249.848C847.211 251.389 846.341 253.686 848.465 254.704C846.469 255.401 845.165 256.797 844.372 258.949C844.96 260.431 845.548 261.943 846.214 263.63C848.081 263.979 849.872 264.298 851.688 264.647C853.555 268.049 849.846 269.997 850.588 272.614C845.958 275.405 845.523 275.987 845.83 278.836C847.518 279.359 848.567 277.876 849.897 277.208C852.865 275.725 855.96 275.056 859.106 276.394C859.899 276.713 860.539 277.528 861.127 278.051C860.744 280.464 859.439 281.685 858.109 282.848C856.83 283.953 856.292 285.523 856.011 287.18C855.934 287.704 856.19 288.547 856.523 288.867C856.855 289.158 857.674 289.187 858.058 288.954C858.851 288.431 859.49 287.617 860.206 286.89C860.897 288.867 860.437 290.699 859.49 292.123C861.639 292.647 863.609 293.112 865.578 293.577L865.451 293.344C864.939 294.071 864.453 294.798 863.941 295.525H863.66L863.89 295.38C866.09 296.572 868.367 295.612 870.592 295.67L870.49 295.467C869.083 298.316 866.704 299.305 864.325 298.142C861.869 296.979 859.976 298.025 857.955 298.869C856.241 299.596 854.63 300.7 852.993 301.718C851.56 302.619 850.179 303.637 848.874 304.567C848.976 306.457 850.204 306.341 850.921 306.312C852.2 306.254 853.479 305.905 854.681 305.382C859.26 303.433 864.095 303.463 868.853 302.881C870.567 302.678 872.409 303.782 874.25 303.259C875.836 302.794 877.525 302.416 878.932 301.544C880.467 300.584 882.001 300.264 883.715 300.177C886.862 299.974 890.008 299.596 893.129 299.072C895.099 298.752 897.248 298.578 898.092 295.816C898.22 295.38 898.962 295.031 899.473 294.914C903.106 294.159 906.252 291.542 910.038 291.251C910.371 291.222 910.678 290.844 911.061 290.582C910.754 288.954 909.348 289.594 908.555 289.041L908.631 289.187C911.292 287.326 914.336 287.966 917.201 287.588C923.264 286.802 929.326 286.308 935.415 285.988C938.714 285.814 942.066 286.25 945.391 286.483C945.621 286.512 945.826 286.948 946.338 287.588C944.752 288.082 943.293 288.256 942.066 288.954C940.761 289.71 939.687 290.931 938.868 291.629C932.473 291.28 926.845 292.618 921.166 293.49C920.885 293.548 920.68 294.362 920.45 294.827C919.759 294.682 919.094 294.536 918.403 294.42C918.403 294.624 918.403 294.827 918.378 295.06C919.017 294.944 919.682 294.798 920.322 294.682C925.105 295.176 929.915 294.798 934.673 294.827C941.503 294.856 948.307 294.798 955.137 295.089C961.968 295.409 968.823 295.38 975.679 295.409C981.716 295.409 987.395 296.892 992.486 300.177C993.33 302.823 992.409 304.887 991.335 306.661C992.435 307.766 993.202 308.58 993.995 309.365L994.225 309.19C993.125 309.19 991.974 309.394 990.925 309.161C989.902 308.9 989.007 308.056 987.984 307.707C986.577 307.242 985.093 306.981 983.456 306.603C981.793 309.365 979.465 310.266 976.805 310.615C974.067 310.964 971.356 311.72 968.516 312.301C967.544 309.539 965.882 308.027 963.528 308.144C956.11 308.463 948.691 308.841 941.273 309.394C938.894 309.568 936.54 310.382 934.187 310.993C930.733 311.894 927.331 312.854 923.724 312.476C922.266 312.33 920.757 312.65 919.299 312.737C918.199 312.796 917.073 313.057 915.999 312.854C914.003 312.447 912.008 311.226 910.064 311.371C908.248 311.487 906.457 311.982 904.589 311.691L904.717 311.807C904.948 311.051 905.178 310.295 905.536 309.132C900.727 307.853 896.404 310.004 892.004 311.167L891.773 311.284L891.927 310.993C893.359 311.458 894.741 312.069 896.199 312.36C897.376 312.592 898.629 312.418 899.883 312.796C897.171 314.075 894.408 314.918 891.466 314.86C890.059 313.61 888.729 311.865 886.734 313.697C886.35 314.133 885.966 314.569 885.583 314.976C885.199 315.063 884.79 315.151 884.406 315.238C884.534 315.325 884.713 315.558 884.764 315.5C885.02 315.296 885.276 315.064 885.506 314.831C885.992 314.569 886.478 314.308 886.964 314.046C888.55 314.278 890.111 314.482 891.697 314.715C888.32 317.331 884.432 317.535 880.543 317.709L880.39 317.389C880.569 316.837 880.722 316.285 880.901 315.732C879.111 315.471 877.346 315.558 875.76 316.692C874.711 317.419 874.89 318.291 875.657 319.163L875.581 319.018C874.276 320.297 872.741 320.849 871.027 320.849C866.627 320.82 862.918 323.117 859.158 325.298C858.723 325.531 858.492 326.199 858.16 326.694L858.365 326.548C855.73 325.036 853.095 324.862 850.383 326.374C847.876 327.769 845.344 329.165 842.735 330.27C835.751 333.206 828.895 336.463 821.809 339.08C815.772 341.318 809.735 343.412 803.544 344.953C803.186 345.04 802.751 345.04 802.47 345.273C798.94 348.151 794.719 349.169 790.78 350.971C790.703 351 790.703 351.291 790.6 351.873C794.898 351.262 799.017 350.361 803.058 348.965C804.286 348.529 805.54 347.802 806.742 347.889C808.916 348.035 810.656 346.406 812.6 346.319C814.698 346.232 816.668 345.854 818.586 345.069C820.837 344.168 822.96 342.83 825.237 342.191C827.591 341.522 829.919 341.057 831.888 339.254C832.323 338.847 833.321 339.196 834.063 339.196C834.088 339.312 834.114 339.428 834.114 339.545C834.063 339.428 834.011 339.283 833.935 339.167C835.521 338.382 837.056 337.509 838.693 336.87C838.974 336.754 839.511 337.451 839.921 337.771C839.793 338.004 839.639 338.236 839.511 338.469C839.742 338.411 839.997 338.353 840.228 338.294C841.89 339.05 843.451 338.672 845.114 338.12C846.265 337.742 847.569 336.899 849.002 338.411C846.853 339.806 844.807 341.144 842.76 342.481L842.888 342.743C843.067 341.144 842.453 340.184 841.046 340.562C837.439 341.493 833.884 342.569 830.43 343.586C829.1 344.953 829.56 347.569 827.514 348.064C827.207 348.151 826.849 347.918 826.337 347.802C826.772 347.046 827.156 346.377 827.514 345.738C827.77 345.418 828.026 345.098 828.281 344.778C827.872 344.836 827.463 344.865 827.028 344.924C822.884 346.058 818.714 347.162 814.57 348.325C811.858 349.081 809.172 349.954 806.486 350.768C804.158 351.466 801.549 351.669 799.528 353.036C795.666 355.623 791.598 356.496 787.275 356.699C786.635 356.728 786.047 357.571 785.382 357.833C784.717 358.095 783.617 358.444 783.336 358.095C781.136 355.42 778.347 357.339 775.891 356.844C774.254 356.496 772.361 357.746 770.596 358.327C768.805 358.88 767.04 359.461 765.275 360.072C764.406 360.392 763.459 360.653 762.717 361.206C759.929 363.183 759.929 363.125 757.78 363.154C756.527 363.154 754.966 363.125 754.122 363.91C752.485 365.451 750.848 366.468 748.699 366.41C748.162 366.41 747.599 366.701 747.113 366.992C743.659 368.969 740.206 370.975 736.573 373.039C735.832 374.813 734.987 376.848 734.169 378.796C731.892 378.302 733.555 376.499 732.864 375.627C729.769 374.638 727.134 375.423 723.936 378.302L724.115 378.156C723.578 378.127 722.657 377.866 722.581 378.069C721.685 380.279 719.869 380.104 718.232 380.599C714.599 381.704 710.762 382.256 707.641 385.018L707.82 384.902C705.672 384.698 703.881 386.007 702.09 386.966C699.276 388.449 697.793 392.316 698.304 395.98C698.688 398.829 697.358 401.475 695.107 402.434C692.523 403.539 689.965 404.673 687.33 405.807C687.381 407.493 687.407 408.918 687.432 410.197C687.867 410.575 688.149 411.04 688.43 411.011C690.707 410.837 693.009 411.767 695.209 409.674C696.718 408.249 698.739 409.674 700.581 410.75C697.562 414.529 694.314 416.855 689.581 416.972C685.386 417.088 681.216 418.6 677.072 419.501C677.43 423.63 678.351 424.996 680.832 424.27C684.235 423.252 687.893 423.833 691.142 421.914C691.935 421.449 693.086 421.071 693.828 421.391C697 422.699 699.634 421.129 702.372 419.821C703.548 419.269 704.802 418.949 705.953 418.542C706.976 419.966 706.081 420.81 705.467 421.362C703.855 422.787 702.039 423.892 700.453 425.316C698.995 426.625 697.639 428.049 697.486 430.433C697.434 431.102 696.821 431.916 696.283 432.294C692.676 434.882 688.993 437.353 685.335 439.854C685.028 440.057 684.618 440.29 684.286 440.261C680.884 439.97 678.453 442.325 675.793 444.099C672.135 446.541 668.042 447.762 663.744 450.146C664.128 448.722 664.307 448.053 664.486 447.355C664.64 447.326 664.819 447.326 664.947 447.268C664.998 447.239 664.998 447.035 665.023 446.919C664.87 447.123 664.716 447.326 664.563 447.501C664.051 447.559 663.258 447.384 663.028 447.704C660.649 451.077 657.682 452.501 653.844 451.92C652.131 451.658 650.749 452.85 649.675 454.391L649.777 454.595C649.265 453.112 649.112 451.687 650.596 450.757C651.747 450.059 652.898 449.361 654.1 448.838C657.733 447.297 661.391 445.901 664.998 444.302C666.507 443.634 667.888 442.732 668.937 441.017C669.96 439.389 671.649 438.284 673.03 436.946C673.133 435.463 672.186 435.144 671.265 435.115C670.165 435.085 669.065 435.231 667.991 435.434C666.354 435.725 664.742 436.132 663.13 436.51L663.207 436.626C662.67 435.783 662.107 434.882 661.033 435.144C659.089 435.609 657.144 436.132 655.226 436.685C651.696 437.702 648.165 438.778 644.635 439.738C644.149 439.883 643.561 439.65 643.024 439.592L643.075 439.738C643.612 438.487 645.3 437.964 644.917 436.074L644.686 436.219C645.761 436.685 646.682 436.51 647.347 435.405L647.168 435.609C648.984 435.289 650.826 434.94 652.668 434.678C654.126 434.446 655.712 434.649 656.991 434.039C658.168 433.486 660.163 433.923 660.316 431.451C660.316 431.248 661.289 430.957 661.775 431.015C666.993 431.509 669.551 427.41 672.8 423.165C671.674 422.758 671.06 422.322 670.447 422.38C669.167 422.496 667.94 422.874 666.661 423.136L666.763 423.339C667.223 422.467 667.658 421.566 668.042 420.81C667.3 418.833 665.816 418.687 664.665 418.978C661.903 419.763 659.165 419.763 656.351 419.588C654.919 419.501 653.41 420.141 651.977 420.577C645.173 422.7 638.342 424.735 631.589 427.032C626.959 428.602 622.354 430.259 617.596 431.219C614.706 431.8 611.764 432.033 608.873 432.789C602.708 434.417 596.415 435.493 590.429 437.702C587.104 438.923 583.727 439.97 580.427 441.366C579.046 441.947 577.588 442.267 576.129 442.5C574.799 442.703 573.853 443.11 572.855 444.39C571.985 445.465 570.246 445.843 568.839 446.134C564.618 446.977 560.372 447.559 556.151 448.315C554.514 448.605 552.825 448.925 551.265 449.507C550.472 449.797 549.909 450.786 549.244 451.484L549.372 451.368C545.483 451.775 541.595 452.414 537.707 452.56C533.256 452.705 528.856 453.345 524.456 454.13C517.677 455.322 510.872 456.543 504.068 457.386C500.231 457.88 496.47 458.811 492.659 459.334C487.901 460.003 483.168 460.672 478.41 461.34C478.052 459.102 479.74 459.16 480.508 459.072C482.554 458.782 484.575 458.665 486.263 457.095C488.31 457.968 490.356 458.898 492.48 455.438C489.896 455.613 488.003 455.7 486.391 457.328C484.549 457.357 482.656 457.183 480.84 457.415C469.943 458.898 459.148 461.224 448.224 462.503C446.459 462.707 444.413 463.347 443.134 464.626C441.215 466.516 439.015 466.719 436.918 466.661C429.525 466.458 420.034 467.359 413.102 469.51C414.458 469.947 415.302 470.528 415.967 470.354C417.757 469.888 418.755 471.051 419.906 472.36C414.278 473.058 408.753 473.93 403.202 474.424C395.604 475.093 388.058 475.994 380.537 477.361C379.079 477.622 377.57 477.593 376.086 477.739C373.502 478 370.893 478.146 368.335 478.64C361.761 479.919 355.237 481.402 348.689 482.711C347.052 483.03 345.338 483.059 343.675 483.176C341.628 483.321 339.761 483.496 338.226 485.618C336.998 487.333 334.824 487.101 332.982 487.217C327.226 487.595 321.496 487.973 315.74 488.293C313.515 488.409 311.366 488.409 309.575 490.532C308.936 491.288 307.503 491.404 306.429 491.462C298.269 491.898 290.108 492.218 281.948 492.596C279.364 492.712 276.781 492.916 274.197 493.061L274.299 493.236C274.146 492.422 273.992 491.637 273.762 490.415C265.244 490.881 256.7 491.346 248.181 491.84C247.465 491.869 246.467 491.927 246.135 492.451C244.395 495.067 241.863 494.806 239.509 494.922C234.879 495.184 230.249 495.213 225.619 495.358C220.784 495.504 215.949 495.736 211.114 495.823C209.835 495.852 208.53 495.474 207.251 495.3L207.303 495.445C209.068 493.178 211.856 494.399 213.902 492.829C216 491.23 218.456 491.608 220.886 492.015C222.293 492.247 223.802 491.782 225.235 491.608C225.516 490.037 225.772 488.671 226.028 487.217C226.284 487.043 226.591 486.665 226.898 486.636C230.76 486.49 234.572 486.461 238.204 484.426C239.739 483.554 241.837 483.641 243.628 483.728C246.979 483.903 250.253 483.641 253.553 483.118C262.89 481.664 272.278 480.501 281.641 479.251C282.178 479.192 282.741 479.454 283.278 479.57L283.176 479.367C282.46 479.919 281.718 480.443 280.515 481.344C283.969 481.722 286.808 482.013 289.673 482.333L289.622 482.187C285.478 484.31 281.001 483.874 276.653 484.048C274.99 484.106 273.429 484.135 271.792 484.542C268.006 485.473 264.169 486.025 260.255 486.054C258.925 486.054 257.774 485.822 256.546 485.444C255.906 485.24 255.139 485.618 254.423 485.763H254.576C252.044 485.734 249.741 487.217 247.107 487.101C244.549 486.985 241.965 487.828 239.407 488.293C236.849 488.758 234.316 489.252 231.784 490.067C234.777 490.619 237.77 490.852 240.814 490.735C249.358 490.386 257.799 489.194 266.267 488.089C277.727 486.578 289.213 485.618 300.724 485.269C311.161 484.949 321.394 483.03 331.677 481.402C336.256 480.675 340.81 479.396 345.517 479.774C346.182 479.832 346.873 479.367 348.152 478.931C346.949 478.146 346.233 477.681 345.517 477.215L345.568 477.361C348.459 476.169 351.247 474.511 354.521 475.791C355.161 476.052 356.082 475.907 356.696 475.558C358.998 474.25 361.249 474.453 363.705 475.093C365.623 475.587 367.747 475.093 369.793 474.889C370.791 474.802 370.893 474.017 370.356 471.895C390.079 469.132 409.853 466.777 429.218 461.457C429.525 461.369 429.729 460.875 430.267 460.235C429.448 460.003 428.808 459.596 428.22 459.683C413.025 461.573 397.702 461.369 382.558 463.986C375.779 465.149 368.898 465.614 362.068 466.37C361.326 466.458 360.507 466.516 359.842 466.254C355.442 464.48 350.991 465.556 346.566 465.876C339.326 466.399 332.061 466.981 324.873 467.999C319.961 468.696 314.845 468.667 310.496 472.127C309.627 472.825 308.399 472.912 307.324 473.203C305.892 473.61 304.357 473.697 303.001 474.337C301.006 475.238 299.113 475.238 297.015 474.918C294.636 474.569 292.18 474.831 289.75 474.802C288.65 474.802 287.473 475.006 286.425 474.744C280.541 473.232 274.913 474.889 269.388 476.692C267.571 477.273 265.832 477.564 263.99 477.826C256.188 478.873 248.36 478.262 240.532 478.582C236.618 478.756 232.781 479.163 228.893 479.919C223.777 480.908 218.533 480.937 213.34 481.315C212.623 481.373 211.83 481.199 211.14 480.879C206.663 478.814 202.007 479.396 197.352 479.629C194.947 479.745 192.568 479.919 190.368 478.32C189.498 477.681 188.219 477.535 187.119 477.593C178.933 477.942 170.773 478.495 162.664 479.745C160.157 480.152 157.855 482.129 154.81 480.762C154.503 478.669 153.608 476.837 151.229 476.343C150.027 476.11 148.952 475.006 148.031 474.424C148.39 470.295 152.073 470.761 153.889 468.057C153.582 465.498 153.557 462.591 151.587 459.945C150.717 460.003 149.694 459.77 148.952 460.206C144.527 462.736 139.513 462.125 134.908 463.666C133.936 463.986 133.092 463.288 133.194 461.486C135.701 460.613 138.413 460.584 141.125 460.352C142.199 460.265 143.631 460.468 144.297 459.799C146.343 457.764 148.773 457.939 151.127 457.677C155.706 457.124 160.285 456.688 164.787 456.194C165.273 453.635 163.508 453.112 162.51 451.978L162.613 452.182C163.431 451.426 164.224 450.67 164.915 450.001C164.889 448.518 163.968 448.402 163.38 448.373C161.18 448.315 158.954 448.227 156.806 448.605C154.043 449.129 151.357 449.478 148.594 448.722C146.369 448.111 144.22 448.78 142.225 449.914C140.562 450.844 138.925 450.815 137.569 449.594C136.008 448.169 134.192 448.024 132.427 447.559L132.504 447.733C133.041 447.181 133.553 446.628 134.269 445.901C133.527 445.494 132.913 445.175 132.273 444.826C132.197 444.535 131.915 444.012 132.043 443.837C134.039 440.959 132.197 438.458 131.455 435.841C131.122 435.667 130.815 435.376 130.457 435.318C121.248 434.01 112.116 431.974 102.779 432.12C100.962 432.149 99.5298 431.48 98.1229 430.492C96.1276 429.125 94.1834 428.863 91.7788 429.532C87.6347 430.695 83.3626 430.811 79.1929 429.3C78.6813 429.125 78.0929 428.922 77.5813 429.009C73.9232 429.532 70.2907 430.114 65.7629 430.841C67.0675 432.091 67.6047 432.963 68.321 433.225C72.8744 434.911 77.3511 436.946 82.0324 437.935C89.2974 439.447 96.6392 440.523 103.827 442.442C105.695 442.936 106.948 441.366 108.56 441.017C113.471 444.826 119.278 443.692 124.676 445.087C119.355 446.687 114.009 447.646 108.509 447.123L108.586 447.297C109.353 446.541 110.146 445.756 111.118 444.797C110.325 444.39 109.839 443.953 109.379 443.924C102.881 443.808 96.4857 443.052 90.1928 440.988C88.2998 440.377 86.151 440.523 84.1045 440.61C81.1115 440.726 78.093 441.104 76.0209 437.819C75.9186 437.673 75.7395 437.499 75.5604 437.47C71.3396 436.83 67.6303 433.835 63.2304 434.01C61.7723 434.068 60.2886 433.981 58.8305 434.01C54.5073 434.126 50.4911 435.289 46.9353 438.633C47.2167 439.708 47.4725 440.668 47.6771 441.482C48.2655 441.715 48.6236 442.034 48.9306 441.947C53.1259 440.842 57.3212 440.639 61.5676 441.337L61.5165 441.22C60.7235 441.627 59.9304 442.412 59.1374 442.412C56.1956 442.412 53.6375 445.349 50.5166 443.866C50.2608 443.75 49.6725 443.953 49.519 444.244C48.0608 446.774 45.1702 446.483 43.1237 448.373C43.4307 449.681 43.7632 451.019 44.1214 452.531C41.8958 454.828 39.6703 457.212 36.1913 457.531C36.6773 455.002 38.2378 453.984 39.9517 453.112C41.4866 452.327 42.0493 450.873 41.9214 449.012C41.7935 447.355 40.3098 446.425 39.1075 447.384C38.0587 448.227 37.1378 449.274 36.0889 450.146C34.6308 451.397 34.6052 451.368 30.9727 451.833C29.7704 446.599 29.7704 446.599 26.3682 444.709C26.803 444.07 27.2123 443.488 27.5705 442.878C28.3891 441.424 29.1309 439.912 28.0053 438.284C26.6751 436.365 25.0635 435.9 23.1194 436.83C21.0985 437.789 19.1032 438.836 17.1078 439.854L17.1846 439.97C18.0032 438.429 19.2311 436.975 19.5636 435.318C19.9473 433.341 21.1497 432.12 21.8659 430.521C23.145 427.759 24.9612 426.596 27.5961 426.828C26.5217 427.613 25.3705 428.253 24.424 429.212C23.9636 429.678 23.6822 430.811 23.8357 431.48C23.9891 432.091 24.8077 432.672 25.4217 432.876C26.0868 433.079 26.8798 432.876 27.5961 432.759C30.1286 432.323 31.7146 430.986 31.382 429.241C30.9216 426.799 29.0542 427.003 27.417 426.944C30.0263 425.927 32.8402 425.316 34.5029 422.409C37.675 421.478 40.6424 419.588 44.0702 419.821C46.526 419.996 48.9306 419.647 50.8492 417.699C51.3096 417.233 51.5655 416.274 51.6166 415.518C51.7189 414.239 49.4934 413.773 50.6957 411.825C51.5399 410.459 50.5678 409.034 49.9283 407.726C49.7492 407.377 49.5701 406.708 49.698 406.592C52.384 404.004 50.4911 399.527 52.8189 396.823C53.1771 393.13 55.7096 391.066 57.6537 388.565C58.0119 388.1 58.4212 387.635 58.8049 387.17C60.8258 384.786 60.8258 382.372 58.8816 379.843C57.2444 379.116 55.5561 378.069 53.791 377.633C50.7724 376.877 48.3422 375.104 46.0655 372.865C43.6865 370.51 43.6098 370.597 45.2469 366.323C43.0726 363.735 42.9446 360.566 44.0446 357.135C44.4795 355.798 44.4284 354.228 44.6074 352.774L44.4284 352.861C44.9656 353.879 45.5028 354.867 45.9888 355.798C47.6516 356.699 49.8004 356.059 51.1562 358.298C50.6957 359.577 50.2097 360.886 49.5957 362.543C50.6445 364.113 51.7701 365.8 52.8445 367.37C52.4352 367.631 52.0003 367.922 51.5399 368.184C51.7957 368.707 51.898 369.23 52.1538 369.405C56.9631 372.225 61.9002 374.522 67.4768 374.406C69.3443 374.377 71.0582 374.58 72.593 372.778C73.1814 372.08 74.6395 372.167 75.7139 372.167C81.0859 372.08 86.4835 372.487 91.6509 370.132C92.1625 369.899 92.7509 369.957 93.2881 369.841C103.086 367.689 113.113 367.166 122.732 363.939C123.09 363.822 123.474 363.852 123.832 363.793C122.834 364.433 121.785 365.102 122.041 366.672C122.271 368.126 123.474 369.23 124.957 369.027C127.132 368.736 129.46 369.172 131.429 367.573C133.041 368.504 133.757 367.108 134.448 365.974C134.934 365.189 135.087 364.142 135.446 363.066C138.566 363.474 141.483 364.026 144.399 364.23C147.724 364.491 150.845 363.764 153.48 360.799C146.164 356.961 139.334 359.985 132.478 361.293C132.146 361.351 131.787 361.7 131.583 362.02C130.099 364.607 128.129 363.939 126.134 363.096C127.311 362.252 128.462 361.38 129.869 360.363C127.388 358.851 125.136 358.996 122.962 359.461C120.89 359.897 118.946 359.868 116.899 359.403C109.379 357.659 101.73 357.746 94.1067 357.542C93.4416 357.513 92.802 357.978 90.8834 358.618C95.181 359.636 98.2508 360.363 101.295 361.089L101.218 360.915C100.348 361.118 99.4531 361.525 98.5833 361.467C96.7415 361.351 94.8997 360.944 93.0578 360.74C87.1486 360.13 81.2394 359.665 75.3302 358.938C72.1582 358.56 69.0884 358.502 66.0443 359.752C65.6094 359.926 65.0211 359.694 64.2792 359.636C65.2513 358.705 66.0187 357.978 66.8373 357.193C64.3048 355.332 61.6955 355.769 59.1374 355.885C59.1119 353.879 59.2398 352.047 59.0607 350.244C58.7793 347.482 57.9095 347.075 54.584 348.035C54.6096 349.169 54.6352 350.361 54.6352 351.553L54.7887 351.524C53.0492 351.029 51.3096 350.564 49.5701 350.07L49.6469 350.244C49.8004 349.459 49.9283 348.645 50.1329 347.569C48.726 345.912 46.833 344.895 44.7609 345.389C40.847 346.348 36.575 346.058 33.3518 349.576C32.482 350.535 31.2797 350.244 30.3588 349.11C31.203 345.767 34.2983 346.581 36.4982 344.778C36.8308 343.412 37.2657 341.667 37.8285 339.341C35.3215 339.69 33.3518 340.039 31.3565 340.272C29.3356 340.504 27.3147 340.766 23.9636 340.01C29.8984 338.527 33.5308 334.573 38.3912 333.991C41.3075 333.642 44.2237 333.177 47.3702 332.741C49.0841 334.311 50.0306 336.783 50.9515 339.399C54.6096 340.213 57.8328 337.975 61.2607 337.451C64.5606 336.957 67.8094 335.998 71.0582 335.154C74.3837 334.282 77.9139 334.166 82.0324 332.043C77.4534 330.444 73.9233 329.398 70.1884 329.398C66.8629 329.427 63.5118 329.398 60.1862 329.281C59.163 329.252 58.1654 328.787 56.5282 328.351C58.7537 327.682 60.2374 327.217 61.6955 326.781C61.5676 325.182 59.3421 325.094 60.4421 323.03C60.7235 322.478 59.6235 320.966 59.0863 319.774C56.3747 322.797 56.3747 322.768 52.3073 323.553C51.4375 323.728 50.6446 324.368 49.8771 324.92C49.6725 325.065 49.7236 325.676 49.5957 326.316C50.6445 326.839 51.7445 327.42 53.484 328.293C51.8724 328.874 50.9004 329.543 49.8771 329.572C41.7168 329.863 33.5564 329.892 25.4217 330.328C21.9171 330.531 18.4381 331.2 14.959 330.241C10.4824 331.985 5.7243 330.648 1.19646 331.694C0.915074 331.753 0.556941 331.404 0.249969 331.229C0.505779 328.903 2.01506 328.205 3.72899 328.06C6.87545 327.769 10.0219 327.653 13.1684 327.479C13.8846 327.45 14.6265 327.449 15.2149 327.449C15.9055 326.199 15.2916 325.792 14.6009 325.414C12.6312 324.368 10.5847 324.891 8.53822 324.92L8.35915 324.542C8.61496 324.222 8.8196 323.699 9.10099 323.641C12.1707 323.175 15.2404 322.768 18.3102 322.361C20.5357 324.571 23.4008 321.14 25.6263 323.408C27.8775 322.536 30.2565 321.925 32.3541 320.704C34.682 319.367 37.1634 320.646 39.4145 319.599C41.461 318.669 43.1749 316.924 45.5283 316.75C47.5492 316.604 49.5701 316.197 51.591 316.023C53.7654 315.819 55.3003 314.278 56.8351 312.825C58.2421 311.487 58.2933 309.219 56.9886 307.766C55.9398 306.603 54.7119 305.672 53.5608 304.626C53.791 301.544 51.105 301.369 49.6469 299.537C44.7609 301.34 39.8494 304.306 34.3239 302.067L34.4262 302.27C35.6285 301.863 36.8052 301.456 38.2633 300.962C37.854 300.468 37.5982 299.857 37.2145 299.741C35.6029 299.334 33.9402 299.159 32.3286 298.752C28.6961 297.851 25.1403 297.27 21.3543 298.113C18.8729 298.665 16.366 298.927 13.8847 299.77C11.8893 300.439 9.53587 299.77 7.33591 299.712L7.38707 299.828C8.00101 297.851 9.56146 297.677 10.994 297.531C20.8938 296.688 30.8193 295.874 40.7191 295.147C43.6354 294.944 46.6027 295.118 49.5446 295.176C51.2585 295.205 52.8445 294.914 54.4305 293.199C54.2003 292.269 53.9701 291.135 53.6119 290.03C53.1003 288.489 52.4864 287.006 51.7445 285.029C50.798 284.593 49.4422 283.953 48.0864 283.343L48.1632 283.517C49.3399 281.889 50.9515 283.11 52.3585 282.761C54.0468 282.296 55.5305 281.743 56.5026 279.97C57.3723 278.4 58.3444 276.946 59.4188 275.172C58.3188 274.417 57.2956 273.748 55.9142 272.788C58.1653 271.305 60.0328 270.084 61.9002 268.863C61.849 265.607 65.1746 265.927 66.2745 263.455C65.6606 261.187 63.5374 261.333 61.4397 260.199C64.1257 259.501 67.042 260.868 68.7047 257.553C63.742 254.122 58.8305 255.605 53.8933 257.001C51.3096 254.413 51.3097 254.413 47.7795 258.222C50.1585 260.315 53.1771 259.268 55.684 260.49L55.6328 260.344C55.5049 260.49 55.377 260.78 55.2491 260.78C49.9538 260.926 44.6586 260.955 39.2354 259.704C41.154 258.978 43.0726 258.28 45.4004 257.408C43.6098 255.721 42.0749 255.634 40.4377 256.128C37.8796 256.913 35.3983 256.826 32.789 256.128C30.6658 255.576 28.3891 255.808 26.1635 255.867C24.1426 255.925 22.1985 256.186 20.1264 255.605C18.3357 255.111 16.2637 255.925 13.6033 256.245C14.5753 257.146 14.8823 257.669 15.266 257.727C18.3613 258.309 21.4055 259.094 24.6542 258.716C26.5984 258.512 28.6449 259.297 30.6658 259.646L30.4867 259.675ZM408.42 471.197C408.523 471.08 408.625 470.964 408.727 470.848C408.625 470.993 408.523 471.139 408.42 471.284C408.293 471.313 408.19 471.342 408.062 471.371C408.19 471.313 408.318 471.255 408.42 471.197ZM885.173 142.154C885.02 142.038 884.867 141.805 884.739 141.834C884.329 141.921 883.946 142.067 883.536 142.212C883.613 142.357 883.741 142.619 883.792 142.619C884.227 142.445 884.636 142.212 885.071 142.008L885.25 141.776L885.173 142.154ZM937.077 120.377C937.512 120.231 937.947 120.115 938.407 119.97C938.305 119.824 938.203 119.679 938.101 119.533C937.768 119.824 937.435 120.115 937.103 120.406C936.617 120.26 936.156 120.115 936.489 121.016C936.668 120.813 936.873 120.609 937.077 120.377ZM836.774 319.134C836.953 319.076 837.132 319.076 837.311 318.989C837.414 318.93 837.491 318.756 837.567 318.64C837.337 318.872 837.107 319.134 836.877 319.367C836.442 319.338 836.007 319.338 835.546 319.308C835.649 319.425 835.802 319.686 835.853 319.657C836.16 319.512 836.467 319.308 836.774 319.134ZM277.19 99.7915C276.755 99.8787 276.32 99.9368 275.885 100.024C276.013 100.111 276.192 100.344 276.269 100.286C276.576 100.111 276.832 99.8787 277.113 99.6752L277.42 99.5589L277.19 99.7915ZM665.126 31.465C665.97 31.5813 666.814 31.6685 668.477 31.872C666.763 30.302 665.97 30.5346 665.228 31.6685C664.844 31.6685 664.486 31.6685 664.102 31.6685C664.179 31.7848 664.333 31.9883 664.358 31.9592C664.64 31.8429 664.87 31.6394 665.126 31.465ZM937.41 299.915C938.408 301.398 938.408 301.398 940.07 299.974C939.61 299.596 939.149 299.247 938.714 298.898C938.663 297.822 938.024 297.473 937.282 297.735C936.873 297.88 936.566 298.491 936.208 298.898C936.617 299.247 937.001 299.596 937.41 299.915ZM111.144 351.873C109.251 351.436 109.251 351.436 107.562 353.152C109.276 352.425 110.146 352.076 111.041 351.698C111.195 351.64 111.348 351.64 111.451 351.553C111.502 351.524 111.476 351.349 111.502 351.233C111.374 351.436 111.246 351.669 111.144 351.873ZM520.542 446.076C519.442 446.018 518.342 445.814 517.268 445.989C516.73 446.076 516.27 446.919 515.784 447.413H515.477L515.707 447.268C517.523 447.908 518.879 446.396 520.44 445.872C520.695 445.698 520.951 445.553 521.207 445.378C520.977 445.611 520.747 445.843 520.542 446.076ZM70.1373 251.04C72.0814 251.156 74.1535 252.232 76.1744 250.197C72.7209 249.179 72.7209 249.179 70.2652 251.098C69.9582 251.098 69.6768 251.127 69.3698 251.127C69.4722 251.011 69.5745 250.837 69.6768 250.837C69.8303 250.837 69.9838 250.953 70.1373 251.04ZM951.454 304.538C953.858 305.294 956.314 306.69 958.821 303.957C956.084 302.416 953.73 302.561 951.531 304.713C951.044 304.596 950.558 304.451 950.072 304.364C949.944 304.335 949.765 304.509 949.612 304.596C949.817 304.858 950.098 305.352 950.226 305.323C950.661 305.149 951.045 304.8 951.454 304.538ZM540.188 445.378C542.362 445.814 544.537 446.425 546.737 445.64C547.453 445.378 548.118 445.087 547.862 443.982C543.693 443.808 542.9 443.982 540.265 445.553C538.704 444.855 537.093 443.721 535.021 446.425C537.272 446.076 538.832 446.745 540.188 445.378ZM541.339 439.214C542.26 439.33 543.181 439.563 544.102 439.505C548.553 439.301 552.748 437.266 557.251 437.412C558.095 437.441 558.862 436.394 560.065 434.446C559.476 434.417 558.913 434.271 558.376 434.388C554.386 435.231 550.369 436.103 546.379 437.063C544.588 437.499 542.849 438.109 541.083 438.662C540.47 438.778 539.856 438.894 539.088 439.04C539.958 440.319 540.649 439.97 541.339 439.214ZM895.585 142.067C898.834 142.416 901.75 141.107 904.743 139.973C907.199 139.043 909.655 138.142 912.136 137.356C914.234 136.717 916.433 136.455 918.761 134.943C917.84 134.536 917.329 134.071 916.919 134.158C914.566 134.682 912.161 135.176 909.859 135.961C904.922 137.618 900.036 139.45 895.15 141.194C894.152 141.601 893.104 141.892 892.157 142.445C891.85 142.619 891.799 143.375 891.339 144.712C893.206 143.549 894.408 142.794 895.585 142.067ZM843.425 145.265C840.893 144.974 838.36 144.509 835.828 144.509C833.398 144.509 831.095 145.498 829.202 147.3C828.818 147.678 828.972 148.725 828.87 149.481H828.563L828.793 149.335C834.19 150.353 838.795 147.882 843.323 145.09L843.502 144.858L843.425 145.265ZM99.9903 186.61C96.7415 185.214 93.5183 185.214 90.2439 186.726C89.0672 187.278 87.737 187.366 86.4835 187.656C84.9487 188.034 83.7464 188.848 83.0813 190.564C82.7231 191.494 82.3138 192.425 81.9301 193.384C83.1324 194.896 84.437 195.681 86.3045 195.507C92.9299 194.896 99.4531 193.646 105.925 192.076C106.181 192.018 106.36 191.552 106.565 191.291C106.155 190.738 105.772 190.186 105.311 189.546C106.59 189.43 107.69 189.314 108.739 189.226C108.944 185.621 108.355 185.156 105.593 186.522L105.669 186.639C104.16 186.726 102.676 186.813 101.167 186.9C100.783 186.813 100.374 186.697 99.9903 186.61ZM515.247 443.459C517.063 441.976 519.237 441.656 521.309 441.075C522.486 440.755 523.612 440.29 525.07 439.767C524.353 439.272 524.021 438.865 523.74 438.894C520.261 439.36 516.782 439.912 513.277 439.127C512.944 439.04 512.535 439.243 512.177 439.301C508.34 440.028 504.477 440.755 500.64 441.424C498.082 441.86 495.524 441.976 492.914 441.976C488.566 441.976 483.91 441.715 480.508 446.512C481.045 447.53 481.582 448.547 482.119 449.623C482.631 450.641 480.61 451.92 482.554 452.938C483.117 452.821 484.038 452.938 484.549 452.501C487.67 449.739 491.354 449.565 495.063 449.129C502.072 448.286 508.979 446.774 515.426 443.343L515.247 443.459ZM-33.7728 248.598L-33.8751 248.423C-33.1588 250.895 -31.2402 250.778 -29.7054 250.488C-24.359 249.412 -19.0125 250.633 -13.6661 250.197C-11.0824 249.964 -8.47315 250.022 -5.86388 249.877C-3.25462 249.732 -2.76859 249.441 -0.747688 246.97C-3.63834 246.301 -6.40109 246.504 -9.18941 246.708C-14.3056 247.086 -19.5497 248.278 -24.2055 244.44C-24.4869 244.207 -24.9217 244.178 -25.2799 244.207C-28.9635 244.353 -32.6984 243.364 -36.2797 245.283C-37.2262 245.778 -38.4029 245.981 -39.4773 245.952C-41.2936 245.894 -43.1098 245.516 -45.0796 245.254C-44.0819 243.161 -42.5726 242.754 -40.8587 242.928C-39.3494 243.074 -37.8146 243.248 -36.3053 241.794C-39.068 240.05 -41.4215 241.271 -43.7238 241.736C-45.7447 242.143 -47.6632 242.55 -49.7609 242.027C-54.2887 240.864 -58.6119 241.969 -62.6793 244.44C-64.4955 245.545 -64.4955 245.545 -63.9839 249.237C-61.5793 250.168 -58.9956 250.371 -56.4119 250.546C-55.2864 250.633 -53.8794 250.662 -53.4446 248.511C-53.2399 247.464 -51.8585 247.929 -50.9888 248.394C-50.9632 248.511 -50.9376 248.598 -50.912 248.714C-50.9888 248.598 -51.0399 248.482 -51.1167 248.365C-46.9726 247.435 -42.9052 247.348 -39.4262 249.79C-37.2518 249.383 -35.7169 247.58 -33.7728 248.598ZM194.333 109.939C196.559 110.113 198.784 110.229 200.933 109.212C203.363 108.049 205.896 107.613 208.556 107.642C210.398 107.671 212.265 107.089 214.107 107.002C215.975 106.915 217.202 105.984 217.816 104.065C227.358 105.228 244.932 106.973 250.688 103.106C250.381 102.641 250.048 102.176 249.741 101.681C252.3 100.78 254.883 100.635 257.595 100.925C259.974 101.158 262.455 101.013 264.758 100.344C266.804 99.7624 268.671 98.2795 271.102 96.913C269.95 96.6513 269.285 96.3606 268.595 96.3315C265.423 96.2443 262.353 97.0584 259.232 97.6981C256.213 98.3377 252.914 97.2328 249.818 97.6108C245.418 98.1051 241.018 98.1923 236.593 98.2795C232.142 98.3668 227.691 98.3958 223.265 98.7447C219.761 99.0064 216.077 99.0646 212.828 100.344C209.068 101.798 205.461 99.995 201.828 100.809C200.754 101.042 199.526 100.809 198.528 101.245C193.387 103.571 187.784 102.059 182.591 103.717C177.961 102.35 173.357 104.095 168.726 103.775C167.115 103.658 165.426 104.182 163.84 104.676C162.74 104.996 162.101 106.711 162.74 107.787C164.147 110.171 164.454 113.34 166.68 115.23C170.594 114.911 174.15 112.207 178.243 113.835C178.959 112.09 179.573 110.636 180.238 109.008C181.543 108.572 182.924 108.107 184.331 107.613L184.254 107.467C183.717 108.718 183.18 109.997 182.54 111.509C183.359 111.887 184.024 112.439 184.663 112.41C187.042 112.323 189.447 112.207 191.801 111.741C192.773 111.538 193.617 110.462 194.512 109.793L194.333 109.939ZM132.862 390.572C131.02 390.601 129.741 390.804 128.513 390.63C127.234 390.455 126.032 389.816 124.753 389.641C120.327 389.06 115.876 388.507 111.425 388.129C110.376 388.042 109.276 388.565 108.202 388.827C106.897 389.147 105.413 388.362 104.313 389.786C102.523 387.78 100.425 389.001 98.4554 389.176C96.0508 389.409 93.6974 390.164 91.2928 390.31C85.9207 390.63 80.5231 390.513 75.2023 391.676C74.8697 391.764 74.2814 391.764 74.1535 391.56C72.107 387.955 69.5745 390.281 67.221 390.833C65.2257 391.298 63.256 391.88 61.2351 392.287C59.0607 392.723 57.756 394.061 56.6049 396.299C54.6352 400.079 54.7119 403.801 55.5561 407.697C56.4258 407.988 57.1677 408.162 57.8584 408.453C61.0816 409.906 64.0234 412.669 67.8605 410.837C68.1164 410.721 68.628 410.953 68.8838 411.186C70.7512 412.785 72.8233 412 74.8442 411.971C75.7651 411.942 76.8395 411.447 77.5813 411.825C81.0092 413.483 84.4882 412.959 87.9928 412.727C88.5044 412.698 89.016 413.018 89.63 413.192C88.6323 414.035 87.7882 414.791 86.944 415.518C90.5253 420.839 92.8788 422.292 97.3299 420.781C99.7089 419.966 102.011 419.734 104.416 419.647C105.695 419.618 107.025 419.385 108.253 418.949C114.188 416.768 120.327 416.768 126.415 417.292C130.483 417.64 134.499 418.513 138.515 417.001C139.027 416.797 139.615 416.914 140.178 416.914C144.271 417.001 148.364 416.943 152.406 415.954C153.48 415.692 154.657 415.605 155.731 415.751C160.464 416.39 164.94 415.634 169.033 412.727C169.033 412.523 168.982 412.291 169.059 412.087C170.594 407.202 169.622 405.051 165.35 404.295C160.029 403.336 154.682 403.336 149.336 404.004C146.752 404.324 144.22 404.731 141.38 402.492C143.12 402.056 144.348 401.678 145.576 401.446C146.906 401.184 148.569 401.824 149.259 399.149C142.225 398.044 135.394 397.695 128.564 397.288C125.034 397.084 121.504 396.852 118.025 396.299C113.778 395.631 109.558 394.904 105.26 395.95C104.953 396.038 104.544 395.398 103.776 394.758C107.332 393.683 110.402 393.479 113.574 393.77C118.178 394.206 122.809 394.642 127.413 394.904C128.871 394.991 130.355 394.555 131.813 394.264C132.146 394.206 132.427 393.828 132.836 393.479C132.862 392.81 132.862 391.996 132.862 390.572ZM228.893 132.966C233.063 132.995 237.13 133.199 241.172 132.966C245.367 132.734 249.537 133.751 253.783 131.861C257.365 130.262 261.688 131.222 266.037 128.169C261.713 127.471 258.337 126.599 256.162 123.226C256.981 121.627 258.951 121.481 259.104 119.359C255.881 119.737 252.914 119.911 250.048 120.493C247.107 121.104 243.986 120.086 241.197 122.383C242.988 122.528 244.804 122.674 246.595 122.819C245.674 123.604 244.779 123.982 243.858 124.011C234.163 124.389 224.646 126.395 215.054 127.762C214.337 127.878 213.493 127.849 212.905 128.256C211.958 128.896 210.961 129.855 211.242 131.28C211.421 132.21 211.984 133.431 212.649 133.809C214.286 134.711 216.102 135.728 217.842 135.728C222.498 135.67 227.077 136.106 231.656 136.891C232.142 136.979 232.653 136.717 233.318 136.601C232.091 134.74 228.995 136.281 228.893 132.966ZM96.588 377.662C102.42 378.127 107.204 378.476 111.988 378.912C113.804 379.087 115.62 379.494 117.437 379.697C118.153 379.785 118.997 379.959 119.56 379.61C121.581 378.331 123.525 378.883 125.495 379.668C129.92 381.413 134.473 382.053 139.155 381.965C144.859 381.878 150.564 380.25 156.294 381.704C156.959 381.878 157.778 381.587 158.468 381.267C158.878 381.093 159.134 380.512 159.441 380.104C158.136 378.302 156.524 379.436 155.143 379.058C154.452 378.883 153.813 378.534 152.482 377.982C155.399 377.575 157.471 377.284 160.029 376.935C159.21 376.034 158.903 375.452 158.468 375.191C156.217 373.999 153.813 374.086 151.383 374.231C149.259 374.348 147.034 375.075 145.141 373.388C148.978 371.527 153.71 373.301 157.343 369.637C151.869 367.602 144.399 368.329 138.976 371.295C139.18 373.592 141.841 371.498 142.173 373.563C138.464 376.034 135.548 373.679 133.015 371.556C132.018 371.673 131.404 371.556 130.918 371.818C127.618 373.592 124.164 373.795 120.583 373.563C119.33 373.475 118.025 374.028 116.746 374.289C116.234 376.586 114.546 376.179 113.139 376.179C111.86 376.179 110.555 375.976 109.251 375.801C106.104 375.423 100.707 376.121 96.588 377.662ZM657.375 34.7795C657.272 34.4597 657.196 34.1399 657.093 33.82C656.556 33.7328 656.019 33.5293 655.507 33.5874C647.193 34.5469 638.777 35.0412 630.566 36.6985C625.27 37.7743 619.95 38.7919 614.654 39.8386C598.717 42.9787 582.729 45.8281 566.69 48.3285C565.437 48.5321 564.209 49.0845 563.006 49.6369C562.52 49.8404 562.009 50.3638 561.855 50.8871C561.727 51.3523 562.06 52.4281 562.264 52.4572C563.339 52.6026 564.464 52.6607 565.539 52.4572C569.197 51.7594 572.881 51.0325 576.488 50.1312C580.478 49.1426 584.699 49.9858 588.562 48.0087C589.048 47.7761 589.713 47.6598 590.199 47.8342C592.527 48.7065 594.599 47.5435 596.748 47.0201C598.027 46.7003 599.357 46.2642 600.61 46.4386C603.885 46.9038 606.878 45.799 609.896 44.7814C611.124 44.3743 612.403 44.0254 613.682 43.88C627.803 42.3972 641.617 38.9082 655.456 35.5936C656.121 35.4773 656.735 35.0703 657.375 34.7795ZM268.185 109.764C265.499 108.572 262.89 108.776 260.306 109.037C253.834 109.706 247.362 110.52 240.89 111.247C236.644 111.712 232.398 112.119 228.126 112.555C225.721 112.817 223.342 113.166 220.937 113.37C215.923 113.777 210.91 114.067 205.896 114.416C204.617 114.503 203.338 114.591 202.34 115.87C201.419 117.033 201.828 118.109 202.033 119.359C202.314 121.162 200.6 121.627 199.859 122.761C198.17 125.465 199.142 128.082 202.135 128.837C202.621 128.954 203.184 128.692 204.003 128.547C204.028 127.471 203.875 126.424 204.079 125.465C204.31 124.302 204.821 123.197 204.975 122.761C209.017 121.685 212.572 121.191 215.795 119.708C217.842 118.748 219.837 119.272 221.73 118.632C223.726 117.963 225.593 117.673 227.716 117.963C231.63 118.458 235.518 117.76 239.202 116.044C240.788 113.224 243.449 113.777 245.776 113.428C247.797 113.137 249.895 113.37 251.89 112.992C257.288 112.032 262.634 110.869 268.185 109.764ZM171.489 345.854C165.887 344.604 156.627 344.865 151.587 346.116C147.238 347.191 142.864 347.976 138.49 348.878C132.657 350.07 126.825 351.233 121.018 352.454C120.404 352.57 119.841 353.065 118.997 353.501C124.164 356.99 124.676 357.135 128.922 357.513C133.911 357.949 138.848 357.949 143.657 356.03C147.494 354.489 151.178 352.338 155.424 352.629C155.936 352.658 156.575 352.338 156.934 351.931C158.571 350.012 160.745 350.477 162.715 350.186C164.352 349.925 166.066 350.041 167.703 349.779C169.647 349.401 171.105 348.296 171.489 345.854ZM192.466 118.603C186.428 116.771 180.263 116.015 174.073 119.795C173.74 121.074 173.408 122.47 173.024 123.982C174.252 125.697 175.403 127.296 176.529 128.896C179.01 129.012 181.491 128.343 183.18 131.251C183.666 132.094 185.149 132.385 186.224 132.53C189.498 132.966 192.798 133.228 196.226 133.577C195.28 131.193 192.824 132.617 192.056 130.931C193.028 130.582 194.205 130.495 194.973 129.797C196.047 128.867 196.328 127.296 196.149 125.785C196.047 124.97 195.842 124.098 195.484 123.43C194.691 122.005 193.77 120.667 192.466 118.603ZM654.382 406.417C649.01 408.046 643.586 409.558 638.24 411.389C635.068 412.494 632.049 414.093 628.545 415.663C627.317 414.907 625.629 414.791 623.736 415.576C621.485 416.507 619.106 417.059 616.778 417.757C614.859 418.338 612.94 418.949 610.74 419.618C611.406 420.083 611.713 420.519 611.994 420.49C618.645 419.588 625.271 418.658 631.922 417.64C632.996 417.466 634.019 416.826 635.068 416.39C639.263 414.733 643.407 412.727 647.731 411.535C650.57 410.808 652.693 409.18 654.382 406.417ZM826.158 10.5018C826.03 10.0657 825.877 9.62956 825.749 9.19344C822.04 8.69916 818.433 9.71679 815.133 11.4904C812.14 13.1186 808.61 13.3512 806.128 16.2296C801.549 17.8287 796.945 19.4279 792.391 21.0852C791.931 21.2596 791.573 21.7248 791.189 22.0446C791.624 23.6438 792.57 23.3239 793.491 23.2658C796.638 23.0332 799.554 21.1724 802.777 21.6957C803.11 21.7539 803.493 21.4631 803.826 21.3178C806.41 20.0966 809.198 19.2825 811.5 17.5961C815.184 14.8922 819.226 13.5256 823.319 12.1591C824.316 11.8102 825.212 11.0542 826.158 10.5018ZM1.50344 243.074C2.42436 244.498 3.62666 243.771 4.6499 243.975C5.85221 244.237 7.05452 245.225 8.20567 245.138C14.2684 244.702 20.3311 243.946 26.4449 244.237C27.1356 244.266 28.2356 244.12 28.1844 242.579C23.9124 241.94 19.7427 240.922 15.5474 240.777C11.1475 240.631 6.69638 241.3 2.29645 241.707C1.98948 241.765 1.75925 242.637 1.50344 243.074ZM843.195 150.731C845.062 152.592 846.265 151.894 847.518 151.545C850.383 150.731 853.223 149.655 856.113 149.277C859.439 148.87 862.688 148.405 865.885 147.242C868.341 146.341 870.925 146.05 873.457 145.381C873.867 145.265 874.225 144.742 874.788 144.218C874.071 143.782 873.585 143.23 873.15 143.288C869.876 143.666 866.525 143.84 863.327 144.654C858.851 145.817 854.476 147.504 850.025 148.899C848.797 149.277 847.493 149.394 846.214 149.713C845.344 149.917 844.5 150.266 843.195 150.731ZM78.7325 338.731C76.5069 338.76 74.8186 338.469 73.2326 338.818C67.0676 340.126 60.9537 341.667 54.9422 343.063C54.5584 344.342 55.0445 345.04 55.8119 345.156C56.7072 345.273 57.6281 345.098 58.5235 344.924C60.3397 344.517 62.1816 343.528 63.9722 343.644C67.9629 343.935 71.6465 342.161 75.5604 342.074C76.993 342.016 77.9906 341.057 78.7325 338.731ZM927.945 302.416C914.029 304.393 911.752 304.945 908.708 307.33C910.678 307.271 912.52 307.388 914.31 307.155C918.71 306.603 923.085 305.934 927.459 305.178C928.482 305.004 929.71 304.626 929.915 303.055C930.119 301.427 931.347 301.398 932.345 300.875C932.856 300.584 933.854 300.322 933.163 298.869C930.887 298.52 928.687 299.101 926.512 300.584C926.947 301.166 927.305 301.602 927.945 302.416ZM874.992 191.901C875.171 192.192 875.35 192.483 875.504 192.774C878.139 191.901 880.773 191.029 883.408 190.186C886.069 189.343 889.215 189.256 891.287 187.54C893.564 185.65 897.197 187.249 898.527 183.382C897.683 182.336 896.685 182.016 895.559 182.51C894.178 183.092 892.848 183.877 891.466 184.458C886.913 186.319 882.334 188.093 877.806 190.011C876.808 190.419 875.939 191.262 874.992 191.901ZM57.3212 245.574C65.1234 246.243 72.7209 245.719 80.3185 245.254C80.9324 245.225 81.5208 244.498 82.5696 243.771C81.2138 243.277 80.3441 242.666 79.4999 242.725C72.3372 243.161 65.2001 243.742 58.063 244.324C57.8584 244.324 57.7049 244.905 57.3212 245.574ZM957.644 133.228C955.777 131.105 954.089 131.483 952.861 131.978C948.461 133.78 943.805 133.519 939.354 134.74C938.638 134.943 937.819 134.856 937.205 135.234C936.259 135.845 935.517 136.979 934.545 137.415C933.445 137.909 932.14 137.88 929.966 138.2C935.261 139.246 934.903 139.13 937.128 138.171C939.021 137.356 941.042 136.949 943.038 136.484C947.642 135.438 952.272 134.42 957.644 133.228ZM600.764 425.287C601.045 424.241 600.355 423.921 599.587 423.95C594.241 424.066 588.945 424.793 583.701 426.159C583.573 426.189 583.574 426.828 583.497 427.148C589.483 429.329 595.162 427.991 600.764 425.287ZM84.1557 349.692C84.0789 349.954 84.0277 350.215 83.951 350.477C87.1486 351.233 90.3207 352.163 93.5439 352.687C96.3834 353.152 99.0694 352.483 101.346 349.198C98.1485 349.576 95.4625 350.099 92.7509 350.157C89.8858 350.215 87.0207 349.866 84.1557 349.692ZM934.366 306.457C938.177 307.271 941.273 306.981 944.342 306.574C944.675 306.515 945.084 306.283 945.263 305.963C945.596 305.469 945.928 304.887 945.954 304.306C945.954 304.044 945.186 303.492 944.803 303.55C942.04 303.928 939.277 304.393 936.54 304.945C935.977 305.091 935.491 305.672 934.366 306.457ZM884.304 147.126C880.467 147.155 876.936 148.172 873.764 150.615C877.422 150.091 881.439 151.138 884.304 147.126ZM50.4655 239.09C55.1212 240.399 57.8072 240.515 60.7234 239.526C57.7049 237.753 55.4282 237.666 50.4655 239.09ZM832.195 153.435C832.221 154.046 832.144 154.365 832.246 154.424C834.549 156.023 836.697 155.325 838.744 153.784C838.949 153.639 839.025 153.028 838.923 152.708C838.821 152.388 838.463 151.894 838.232 151.894C836.058 151.894 834.088 152.766 832.195 153.435ZM94.2857 236.357C92.6997 233.246 90.73 233.624 88.0184 233.682C89.0672 235.194 89.5532 236.648 90.3463 236.881C91.3695 237.229 92.623 236.619 94.2857 236.357ZM158.954 357.775C156.217 357.659 153.403 355.1 150.564 358.007C153.48 359.141 156.217 358.822 158.954 357.775ZM40.0284 442.093C38.3145 440.232 36.7029 441.453 35.1425 442.267C34.9378 442.383 34.8099 443.023 34.9122 443.343C35.0145 443.663 35.3983 444.012 35.7052 444.07C37.4447 444.506 38.9284 444.128 40.0284 442.093ZM-31.7519 259.966C-35.4355 258.745 -36.6634 258.919 -40.3982 261.711C-36.9448 260.955 -34.2076 262.147 -31.7519 259.966ZM104.288 349.576C107.741 350.041 107.741 350.041 111.246 347.366C108.253 348.093 106.079 347.831 104.288 349.576ZM42.2796 250.255C40.0796 248.307 40.0796 248.307 37.0866 250.517C38.9029 252.145 40.4121 250.924 42.2796 250.255ZM-19.1404 244.644C-16.5056 245.341 -16.5056 245.341 -14.5103 244.12C-16.173 243.161 -17.6056 243.422 -19.1404 244.644ZM527.807 439.505C529.751 440.464 530.928 439.796 532.411 437.906C530.237 437.179 528.907 437.295 527.807 439.505ZM49.519 426.13C49.3399 425.316 49.3655 424.764 49.1608 424.618C48.7515 424.357 48.1632 424.124 47.7283 424.27C46.833 424.56 46.1423 425.258 46.1679 426.421C46.1679 426.712 46.6795 427.235 46.833 427.177C47.7539 426.886 48.6492 426.479 49.519 426.13ZM143.171 393.566C140.869 393.654 139.641 393.712 137.825 393.77C139.692 394.846 140.92 395.253 143.171 393.566ZM293.869 99.9078C292.82 100.14 291.797 100.373 290.594 100.606C292.027 102.437 293.101 101.158 293.869 99.9078ZM770.673 25.9407C770.673 25.679 770.673 25.3883 770.647 25.1266C769.624 24.9812 768.626 24.7777 767.603 24.7195C767.424 24.7195 767.066 25.3301 767.092 25.5918C767.117 25.9116 767.526 26.4059 767.731 26.4059C768.729 26.3187 769.701 26.0861 770.673 25.9407ZM970.051 303.986C969.233 303.521 968.516 303.026 967.749 302.707C967.544 302.619 967.058 303.026 966.93 303.346C966.828 303.608 966.905 304.189 967.084 304.393C967.979 305.469 968.926 305.556 970.051 303.986ZM-9.16384 244.382C-8.6778 244.12 -8.19176 243.917 -7.78246 243.568C-7.70572 243.51 -8.03827 242.55 -8.08943 242.55C-8.60105 242.667 -9.08709 242.899 -9.59871 243.103C-9.4708 243.481 -9.34291 243.83 -9.16384 244.382ZM-28.0682 240.864C-27.8124 241.562 -27.7612 242.056 -27.5566 242.172C-26.9171 242.55 -26.1752 242.754 -25.7915 241.794C-25.6892 241.562 -25.9194 240.835 -26.0473 240.806C-26.6612 240.748 -27.3008 240.835 -28.0682 240.864ZM-72.5024 252.843C-73.8582 252.261 -74.3698 251.854 -74.8047 251.941C-75.214 252.029 -75.5465 252.61 -75.9303 252.959C-75.521 253.221 -75.0861 253.628 -74.6768 253.657C-74.1652 253.657 -73.6791 253.308 -72.5024 252.843ZM1016.71 116.597C1016.66 116.364 1016.63 116.074 1016.58 116.044C1015.94 115.87 1015.28 115.725 1014.61 115.637C1014.56 115.637 1014.49 115.899 1014.41 116.044C1015.02 116.335 1015.64 116.626 1016.25 116.859C1016.38 116.917 1016.56 116.713 1016.71 116.597ZM167.217 449.768C167.422 450.03 167.652 450.524 167.806 450.466C168.113 450.379 168.419 450.088 168.624 449.768C168.675 449.681 168.24 449.012 168.164 449.042C167.831 449.216 167.55 449.507 167.217 449.768ZM889.266 146.631C889.164 146.312 889.062 145.992 889.062 145.992C888.576 146.108 888.115 146.283 887.655 146.428C887.757 146.719 887.834 147.009 887.936 147.3C888.346 147.097 888.806 146.864 889.266 146.631ZM926.512 138.985C926.563 138.607 926.589 138.432 926.615 138.258C926.052 138.461 925.464 138.694 924.901 138.897C925.003 139.072 925.131 139.363 925.182 139.363C925.668 139.275 926.129 139.101 926.512 138.985ZM880.646 142.881C880.415 142.59 880.211 142.096 879.929 142.038C879.648 141.95 879.264 142.27 878.932 142.416C879.162 142.706 879.367 143.172 879.622 143.259C879.955 143.317 880.313 143.026 880.646 142.881ZM966.828 116.044C966.598 115.783 966.368 115.347 966.112 115.288C965.83 115.259 965.498 115.579 965.165 115.754C965.498 116.103 965.805 116.481 966.163 116.742C966.265 116.771 966.598 116.306 966.828 116.044ZM55.7607 250.662C55.5049 250.546 55.2235 250.4 54.9677 250.284C54.891 250.488 54.8142 250.72 54.7375 250.924C55.0445 250.982 55.3259 251.04 55.6328 251.069C55.6584 251.069 55.7096 250.808 55.7607 250.662ZM280.669 99.8787L280.439 99.5589L280.285 99.8496L280.669 99.8787ZM56.3235 222.459C56.6305 222.663 56.8863 222.895 57.1677 223.041C57.27 223.07 57.4491 222.866 57.6026 222.75C57.4235 222.517 57.27 222.139 57.0398 222.081C56.8351 222.023 56.5793 222.314 56.3235 222.459ZM672.493 418.571C672.647 418.833 672.723 419.269 672.928 419.327C673.209 419.414 673.542 419.24 673.849 419.181C673.721 418.92 673.644 418.455 673.465 418.396C673.184 418.338 672.851 418.513 672.493 418.571ZM92.9811 387.257L93.4671 387.17L93.0578 386.879L92.9811 387.257ZM228.637 490.444L228.535 490.793L228.995 490.764L228.637 490.444ZM832.349 55.7718L831.863 55.859L832.272 56.1497L832.349 55.7718ZM999.802 120.202C999.725 120.057 999.674 119.824 999.572 119.766C999.469 119.737 999.316 119.911 999.188 119.999C999.316 120.173 999.444 120.318 999.572 120.493C999.648 120.406 999.725 120.289 999.802 120.202ZM919.503 138.694L919.196 139.014L919.554 139.159L919.503 138.694ZM702.295 380.221L702.5 380.482L702.602 380.192L702.295 380.221Z" fill="white"/>
</svg>
